<?xml version="1.0" encoding="utf-8"?>
<svg class="svglite" width="124.44pt" height="144.00pt" viewBox="0 0 124.44 144.00" xmlns="http://www.w3.org/2000/svg">
  <defs>
    <style type="text/css">
    .svglite line, .svglite polyline, .svglite polygon, .svglite path, .svglite rect, .svglite circle {
      fill: none;
      stroke: #000000;
      stroke-linecap: round;
      stroke-linejoin: round;
      stroke-miterlimit: 10.00;
    }
    .svglite text {
      white-space: pre;
    }
  </style>
  </defs>
  <rect width="100%" height="100%" style="stroke: none; fill: none;"/>
  <defs>
    <clipPath id="cpMC4wMHwxMjQuNDR8MC4wMHwxNDQuMDA=">
      <rect x="0.00" y="0.00" width="124.44" height="144.00"/>
    </clipPath>
  </defs>
  <g clip-path="url(#cpMC4wMHwxMjQuNDR8MC4wMHwxNDQuMDA=)"/>
  <defs>
    <clipPath id="cpMC4wMHwxMjQuNDR8MC4xNHwxNDMuODY=">
      <rect x="0.00" y="0.14" width="124.44" height="143.71"/>
    </clipPath>
  </defs>
  <g clip-path="url(#cpMC4wMHwxMjQuNDR8MC4xNHwxNDMuODY=)">
    <rect x="0.00" y="0.14" width="124.44" height="143.71" style="stroke-width: 1.07; stroke: none;"/>
  </g>
  <g clip-path="url(#cpMC4wMHwxMjQuNDR8MC4wMHwxNDQuMDA=)"/>
  <defs>
    <clipPath id="cpMC4wMHwxMjQuNDR8MC4xNHwxNDQuMDA=">
      <rect x="0.00" y="0.14" width="124.44" height="143.85"/>
    </clipPath>
  </defs>
  <g clip-path="url(#cpMC4wMHwxMjQuNDR8MC4xNHwxNDQuMDA=)">
    <rect x="-0.14" y="0.14" width="124.58" height="143.85" style="stroke-width: 1.07; stroke: none;"/>
    <polygon points="1.08,36.81 1.08,107.33 62.15,142.59 123.22,107.33 123.22,36.81 62.15,1.55 1.08,36.81 " style="stroke-width: 4.27; stroke: none; fill: #000000;"/>
  </g>
  <g clip-path="url(#cpMC4wMHwxMjQuNDR8MC4wMHwxNDQuMDA=)">
    <rect x="-26.00" y="-16.08" width="176.29" height="176.29" style="stroke-width: 0.75; stroke: none;"/>
  </g>
  <g clip-path="url(#cpMC4wMHwxMjQuNDR8MC4xNHwxNDQuMDA=)"/>
  <g clip-path="url(#cpMC4wMHwxMjQuNDR8MC4wMHwxNDQuMDA=)">
    <rect x="-26.00" y="-16.08" width="176.29" height="176.29" style="stroke-width: 0.75; stroke: none;"/>
    <path d="M 18.52 75.24 L 16.74 75.21 L 14.96 76.04 L 14.16 76.52 L 13.18 77.36 L 12.19 78.3 L 11.4 79.48 L 11.15 80.08 L 11.4 81.04 L 11.76 81.86 L 13.18 83.26 L 13.62 83.64 L 14.96 84.53 L 16.74 85.18 L 18.52 84.88 L 19.68 83.64 L 20.3 82.4 L 20.51 81.86 L 20.82 80.08 L 20.57 78.3 L 20.3 77.55 L 19.82 76.52 L 18.52 75.24 Z" style="fill-rule: evenodd; fill: #0D0887; stroke-width: 1.07; stroke: none;"/>
    <path d="M 34.55 -14.32 L 33.01 -16.08 L 32.77 -16.08 L 30.99 -16.08 L 29.21 -16.08 L 28.81 -16.08 L 27.8 -14.29 L 27.43 -12.7 L 27.4 -12.51 L 27.41 -10.73 L 27.43 -10.69 L 27.8 -8.95 L 28.77 -7.17 L 29.21 -6.62 L 30.99 -5.81 L 32.77 -6.26 L 33.95 -7.17 L 34.55 -8.1 L 35.03 -8.95 L 35.37 -10.73 L 35.2 -12.51 L 34.56 -14.29 L 34.55 -14.32 Z M 14.96 54.59 L 13.18 54.05 L 11.4 53.91 L 9.62 54.24 L 8.09 55.15 L 7.84 55.31 L 6.51 56.93 L 6.06 57.86 L 5.6 58.71 L 4.35 60.5 L 4.28 60.6 L 2.5 62.23 L 2.44 62.28 L 1.45 64.06 L 0.92 65.84 L 0.72 66.88 L 0.58 67.62 L 0.46 69.4 L 0.63 71.18 L 0.72 71.43 L 1.25 72.96 L 2.38 74.74 L 2.5 74.88 L 3.63 76.52 L 4.28 77.5 L 4.68 78.3 L 5.55 80.08 L 6.06 81.03 L 6.46 81.86 L 7.48 83.64 L 7.84 84.23 L 8.6 85.43 L 9.62 87.04 L 9.75 87.21 L 11.29 88.99 L 11.4 89.11 L 13.18 90.39 L 14.12 90.77 L 14.96 91.12 L 16.74 91.39 L 18.52 91.23 L 19.77 90.77 L 20.3 90.57 L 22.08 89.13 L 22.2 88.99 L 23.65 87.21 L 23.86 86.9 L 24.8 85.43 L 25.65 83.77 L 25.71 83.64 L 26.42 81.86 L 26.89 80.08 L 27.15 78.3 L 27.21 76.52 L 27.07 74.74 L 26.75 72.96 L 26.23 71.18 L 25.65 69.71 L 25.5 69.4 L 24.51 67.62 L 23.86 66.58 L 23.25 65.84 L 22.08 64.24 L 21.96 64.06 L 21.66 62.28 L 22.08 60.57 L 22.13 60.5 L 23.27 58.71 L 22.08 57.6 L 21 56.93 L 20.3 56.84 L 18.52 56.27 L 16.74 55.41 L 16.34 55.15 L 14.96 54.59 Z M 25.65 55.48 L 24.12 56.93 L 25.65 57.89 L 27.43 58.08 L 27.74 56.93 L 27.43 55.76 L 25.65 55.48 Z M 18.52 75.24 L 19.82 76.52 L 20.3 77.55 L 20.57 78.3 L 20.82 80.08 L 20.51 81.86 L 20.3 82.4 L 19.68 83.64 L 18.52 84.88 L 16.74 85.18 L 14.96 84.53 L 13.62 83.64 L 13.18 83.26 L 11.76 81.86 L 11.4 81.04 L 11.15 80.08 L 11.4 79.48 L 12.19 78.3 L 13.18 77.36 L 14.16 76.52 L 14.96 76.04 L 16.74 75.21 L 18.52 75.24 Z" style="fill-rule: evenodd; fill: #5D01A6; stroke-width: 1.07; stroke: none;"/>
    <path d="M 34.55 39.36 L 32.77 39.94 L 31.72 40.91 L 30.99 41.26 L 29.21 42.24 L 28.34 42.69 L 27.43 43.07 L 25.65 43.79 L 23.86 44.44 L 23.78 44.47 L 22.08 44.97 L 20.3 45.37 L 18.52 45.65 L 16.74 45.86 L 14.96 46.04 L 13.18 46.23 L 13.05 46.25 L 11.4 46.45 L 9.62 46.81 L 7.84 47.51 L 7.03 48.03 L 6.06 48.79 L 5.17 49.81 L 4.31 51.59 L 4.28 51.64 L 2.73 53.37 L 2.5 53.58 L 0.72 55.12 L 0.69 55.15 L 0.72 81.64 L 0.92 81.86 L 1.93 83.64 L 2.5 85.06 L 2.68 85.43 L 3.57 87.21 L 4.22 88.99 L 4.28 89.19 L 4.67 90.77 L 5.38 92.55 L 6.06 93.78 L 6.39 94.33 L 7.57 96.11 L 7.84 96.52 L 8.78 97.89 L 9.62 99.54 L 9.8 99.67 L 11.4 100.03 L 11.78 99.67 L 13.18 98.61 L 14.96 99.13 L 16.57 99.67 L 16.74 99.74 L 18.52 100.13 L 20.3 100.27 L 22.08 99.94 L 22.49 99.67 L 23.86 98.57 L 24.48 97.89 L 25.65 96.29 L 25.75 96.11 L 26.43 94.33 L 26.85 92.55 L 27.43 91.06 L 27.57 90.77 L 28.91 88.99 L 29.21 88.56 L 30.12 87.21 L 30.99 85.96 L 31.42 85.43 L 32.77 83.75 L 32.88 83.64 L 34.29 81.86 L 34.55 81.4 L 35.23 80.08 L 35.69 78.3 L 35.81 76.52 L 35.89 74.74 L 36.3 72.96 L 36.33 72.88 L 37.34 71.18 L 38.11 70.44 L 39.89 69.71 L 41.67 69.56 L 42.42 69.4 L 43.45 69.01 L 44.82 67.62 L 45.23 66.88 L 45.99 65.84 L 47.01 64.6 L 47.61 64.06 L 48.79 63.16 L 49.96 62.28 L 50.58 61.73 L 51.4 60.5 L 50.85 58.71 L 50.58 58.46 L 48.79 57.1 L 48.56 56.93 L 47.01 55.37 L 46.84 55.15 L 45.66 53.37 L 45.23 52.6 L 44.67 51.59 L 43.67 49.81 L 43.45 49.44 L 42.59 48.03 L 41.67 46.49 L 41.52 46.25 L 40.54 44.47 L 39.89 43.01 L 39.67 42.69 L 38.11 41.6 L 36.57 40.91 L 36.33 40.78 L 34.55 39.36 Z M 14.96 54.59 L 16.34 55.15 L 16.74 55.41 L 18.52 56.27 L 20.3 56.84 L 21 56.93 L 22.08 57.6 L 23.27 58.71 L 22.13 60.5 L 22.08 60.57 L 21.66 62.28 L 21.96 64.06 L 22.08 64.24 L 23.25 65.84 L 23.86 66.58 L 24.51 67.62 L 25.5 69.4 L 25.65 69.71 L 26.23 71.18 L 26.75 72.96 L 27.07 74.74 L 27.21 76.52 L 27.15 78.3 L 26.89 80.08 L 26.42 81.86 L 25.71 83.64 L 25.65 83.77 L 24.8 85.43 L 23.86 86.9 L 23.65 87.21 L 22.2 88.99 L 22.08 89.13 L 20.3 90.57 L 19.77 90.77 L 18.52 91.23 L 16.74 91.39 L 14.96 91.12 L 14.12 90.77 L 13.18 90.39 L 11.4 89.11 L 11.29 88.99 L 9.75 87.21 L 9.62 87.04 L 8.6 85.43 L 7.84 84.23 L 7.48 83.64 L 6.46 81.86 L 6.06 81.03 L 5.55 80.08 L 4.68 78.3 L 4.28 77.5 L 3.63 76.52 L 2.5 74.88 L 2.38 74.74 L 1.25 72.96 L 0.72 71.43 L 0.63 71.18 L 0.46 69.4 L 0.58 67.62 L 0.72 66.88 L 0.92 65.84 L 1.45 64.06 L 2.44 62.28 L 2.5 62.23 L 4.28 60.6 L 4.35 60.5 L 5.6 58.71 L 6.06 57.86 L 6.51 56.93 L 7.84 55.31 L 8.09 55.15 L 9.62 54.24 L 11.4 53.91 L 13.18 54.05 L 14.96 54.59 Z M 25.65 55.48 L 27.43 55.76 L 27.74 56.93 L 27.43 58.08 L 25.65 57.89 L 24.12 56.93 L 25.65 55.48 Z" style="fill-rule: evenodd; fill: #9C179E; stroke-width: 1.07; stroke: none;"/>
    <path d="M 122.57 107.212 L 122.84 55.15 L 122.09 56.93 L 122.13 58.71 L 122.74 60.5 L 122.72 62.28 L 121.8 63.94 L 121.68 64.06 L 120.02 65.48 L 119.5 65.84 L 118.24 67.05 L 117.8 67.62 L 116.84 69.4 L 116.46 70.63 L 116.31 71.18 L 116.1 72.96 L 116.21 74.74 L 116.46 75.69 L 116.61 76.52 L 116.5 78.3 L 116.46 78.41 L 115.76 80.08 L 115.26 81.86 L 114.78 83.64 L 114.68 83.91 L 114.02 85.43 L 112.9 86.75 L 112.51 87.21 L 111.12 88.35 L 110.6 88.99 L 109.34 90.34 L 109.17 90.77 L 109.34 91.68 L 109.59 92.55 L 110.15 94.33 L 110.06 96.11 L 109.49 97.89 L 109.34 98.18 L 108.7 99.67 L 108.13 101.45 L 107.56 102.96 L 107.45 103.23 L 106.4 105.01 L 105.78 105.69 L 104.55 106.79 L 104 107.23 L 102.22 108.42 L 101.94 108.57 L 100.44 109.4 L 98.66 110.16 L 98.09 110.36 L 96.87 110.77 L 95.09 111.27 L 93.31 111.72 L 91.69 112.14 L 91.53 112.19 L 89.75 113.03 L 88.66 113.92 L 87.97 114.46 L 86.54 115.7 L 86.19 115.96 L 84.41 117.26 L 84.08 117.48 L 82.63 118.22 L 80.85 118.61 L 79.07 118.5 L 77.29 118.39 L 75.51 118.34 L 73.73 118.4 L 71.94 118.64 L 70.18 119.26 L 70.16 119.27 L 68.38 120.5 L 67.84 121.04 L 66.6 122.2 L 66.05 122.82 L 64.82 124.32 L 64.59 124.6 L 63.46 126.38 L 63.04 127.33 L 62.62 128.16 L 61.94 129.94 L 61.45 131.72 L 61.26 133.08 L 61.18 133.51 L 61.18 135.29 L 61.26 135.83 L 61.42 137.07 L 61.7 138.85 L 61.26 140.27 L 63.076 141.786 L 122.57 107.212 Z M 1.292 37.535 L 2.5 53.58 L 2.73 53.37 L 4.28 51.64 L 4.31 51.59 L 5.17 49.81 L 6.06 48.79 L 7.03 48.03 L 7.84 47.51 L 9.62 46.81 L 11.4 46.45 L 13.05 46.25 L 13.18 46.23 L 14.96 46.04 L 16.74 45.86 L 18.52 45.65 L 20.3 45.37 L 22.08 44.97 L 23.78 44.47 L 23.86 44.44 L 25.65 43.79 L 27.43 43.07 L 28.34 42.69 L 29.21 42.24 L 30.99 41.26 L 31.72 40.91 L 32.77 39.94 L 34.55 39.36 L 36.33 40.78 L 36.57 40.91 L 38.11 41.6 L 39.67 42.69 L 39.89 43.01 L 40.54 44.47 L 41.52 46.25 L 41.67 46.49 L 42.59 48.03 L 43.45 49.44 L 43.67 49.81 L 44.67 51.59 L 45.23 52.6 L 45.66 53.37 L 46.84 55.15 L 47.01 55.37 L 48.56 56.93 L 48.79 57.1 L 50.58 58.46 L 50.85 58.71 L 51.4 60.5 L 50.58 61.73 L 49.96 62.28 L 48.79 63.16 L 47.61 64.06 L 47.01 64.6 L 45.99 65.84 L 45.23 66.88 L 44.82 67.62 L 43.45 69.01 L 42.42 69.4 L 41.67 69.56 L 39.89 69.71 L 38.11 70.44 L 37.34 71.18 L 36.33 72.88 L 36.3 72.96 L 35.89 74.74 L 35.81 76.52 L 35.69 78.3 L 35.23 80.08 L 34.55 81.4 L 34.29 81.86 L 32.88 83.64 L 32.77 83.75 L 31.42 85.43 L 30.99 85.96 L 30.12 87.21 L 29.21 88.56 L 28.91 88.99 L 27.57 90.77 L 27.43 91.06 L 26.85 92.55 L 26.43 94.33 L 25.75 96.11 L 25.65 96.29 L 24.48 97.89 L 23.86 98.57 L 22.49 99.67 L 22.08 99.94 L 20.3 100.27 L 18.52 100.13 L 16.74 99.74 L 16.57 99.67 L 14.96 99.13 L 13.18 98.61 L 11.78 99.67 L 11.4 100.03 L 9.8 99.67 L 9.62 99.54 L 8.78 97.89 L 7.84 96.52 L 7.57 96.11 L 6.39 94.33 L 6.06 93.78 L 5.38 92.55 L 4.67 90.77 L 4.28 89.19 L 4.22 88.99 L 3.57 87.21 L 2.68 85.43 L 2.5 85.06 L 1.93 83.64 L 0.92 81.86 L 0.72 81.64 L 2.5 103.98 L 4.28 104.24 L 5.35 105.01 L 6.06 106.06 L 6.74 106.79 L 7.84 108.57 L 7.85 108.57 L 9.62 109.68 L 11.39 110.36 L 11.4 110.36 L 13.18 110.96 L 14.96 111.36 L 16.74 110.78 L 18.08 110.36 L 18.52 110.21 L 20.3 109.5 L 21.96 108.57 L 22.08 108.52 L 23.86 107.76 L 25.65 107.09 L 26.27 106.79 L 27.43 106.18 L 28.99 105.01 L 29.21 104.81 L 30.47 103.23 L 30.99 102.38 L 31.44 101.45 L 32.24 99.67 L 32.77 98.47 L 33.01 97.89 L 33.85 96.11 L 34.55 94.81 L 34.85 94.33 L 36.27 92.55 L 36.33 92.49 L 38.11 91.3 L 39.67 90.77 L 39.89 90.7 L 41.67 90.37 L 43.45 90.18 L 45.23 90.03 L 47.01 89.42 L 47.53 88.99 L 48.46 87.21 L 48.79 86.23 L 49.05 85.43 L 49.35 83.64 L 49.44 81.86 L 49.48 80.08 L 49.67 78.3 L 50.27 76.52 L 50.58 76.03 L 51.39 74.74 L 52.36 73.61 L 52.95 72.96 L 54.14 71.88 L 55.14 71.18 L 55.92 70.76 L 57.7 69.98 L 58.93 69.4 L 59.48 69.15 L 61.26 68.24 L 62.45 67.62 L 63.04 67.27 L 64.82 65.96 L 64.95 65.84 L 66.18 64.06 L 66.6 62.74 L 66.74 62.28 L 67.02 60.5 L 67.22 58.71 L 67.42 56.93 L 67.66 55.15 L 68.01 53.37 L 68.38 51.92 L 68.5 51.59 L 69.16 49.81 L 69.87 48.03 L 70.16 47.39 L 70.99 46.25 L 71.94 44.58 L 71.99 44.47 L 72.42 42.69 L 72.79 40.91 L 73.28 39.13 L 73.73 38.01 L 73.87 37.35 L 74.23 35.57 L 74.22 33.78 L 73.73 33.2 L 71.94 32.56 L 70.16 33.28 L 69 33.78 L 68.38 34.43 L 66.78 35.57 L 66.6 35.74 L 64.82 36.77 L 63.04 36.92 L 61.26 35.95 L 61 35.57 L 60.28 33.78 L 60.56 32 L 61.26 30.39 L 61.36 30.22 L 62.05 28.44 L 62.5 26.66 L 63.02 24.88 L 63.04 24.83 L 63.61 23.1 L 64.31 21.32 L 64.79 19.54 L 64.76 17.76 L 64.04 15.98 L 63.04 14.61 L 62.82 14.2 L 62.63 12.42 L 62.25 10.64 L 62.66 8.85 L 63.04 8.19 L 64.09 7.07 L 64.82 6.07 L 65.48 5.29 L 62.824 2.876 L 1.292 37.535 Z" style="fill-rule: evenodd; fill: #CC4678; stroke-width: 1.07; stroke: none;"/>
    <path d="M 123.212 37.634 L 65.48 5.29 L 64.82 6.07 L 64.09 7.07 L 63.04 8.19 L 62.66 8.85 L 62.25 10.64 L 62.63 12.42 L 62.82 14.2 L 63.04 14.61 L 64.04 15.98 L 64.76 17.76 L 64.79 19.54 L 64.31 21.32 L 63.61 23.1 L 63.04 24.83 L 63.02 24.88 L 62.5 26.66 L 62.05 28.44 L 61.36 30.22 L 61.26 30.39 L 60.56 32 L 60.28 33.78 L 61 35.57 L 61.26 35.95 L 63.04 36.92 L 64.82 36.77 L 66.6 35.74 L 66.78 35.57 L 68.38 34.43 L 69 33.78 L 70.16 33.28 L 71.94 32.56 L 73.73 33.2 L 74.22 33.78 L 74.23 35.57 L 73.87 37.35 L 73.73 38.01 L 73.28 39.13 L 72.79 40.91 L 72.42 42.69 L 71.99 44.47 L 71.94 44.58 L 70.99 46.25 L 70.16 47.39 L 69.87 48.03 L 69.16 49.81 L 68.5 51.59 L 68.38 51.92 L 68.01 53.37 L 67.66 55.15 L 67.42 56.93 L 67.22 58.71 L 67.02 60.5 L 66.74 62.28 L 66.6 62.74 L 66.18 64.06 L 64.95 65.84 L 64.82 65.96 L 63.04 67.27 L 62.45 67.62 L 61.26 68.24 L 59.48 69.15 L 58.93 69.4 L 57.7 69.98 L 55.92 70.76 L 55.14 71.18 L 54.14 71.88 L 52.95 72.96 L 52.36 73.61 L 51.39 74.74 L 50.58 76.03 L 50.27 76.52 L 49.67 78.3 L 49.48 80.08 L 49.44 81.86 L 49.35 83.64 L 49.05 85.43 L 48.79 86.23 L 48.46 87.21 L 47.53 88.99 L 47.01 89.42 L 45.23 90.03 L 43.45 90.18 L 41.67 90.37 L 39.89 90.7 L 39.67 90.77 L 38.11 91.3 L 36.33 92.49 L 36.27 92.55 L 34.85 94.33 L 34.55 94.81 L 33.85 96.11 L 33.01 97.89 L 32.77 98.47 L 32.24 99.67 L 31.44 101.45 L 30.99 102.38 L 30.47 103.23 L 29.21 104.81 L 28.99 105.01 L 27.43 106.18 L 26.27 106.79 L 25.65 107.09 L 23.86 107.76 L 22.08 108.52 L 21.96 108.57 L 20.3 109.5 L 18.52 110.21 L 18.08 110.36 L 16.74 110.78 L 14.96 111.36 L 13.18 110.96 L 11.4 110.36 L 11.39 110.36 L 9.62 109.68 L 7.85 108.57 L 7.84 108.57 L 6.74 106.79 L 6.06 106.06 L 5.35 105.01 L 4.28 104.24 L 2.5 103.98 L 0.72 104.26 L 32.77 126.77 L 33.11 126.38 L 34.55 125.41 L 35.15 124.6 L 36.13 122.82 L 36.33 121.94 L 36.47 121.04 L 36.48 119.26 L 36.68 117.48 L 37.41 115.7 L 38.11 114.54 L 38.41 113.92 L 39.04 112.14 L 39.32 110.36 L 39.32 108.57 L 39.17 106.79 L 39.09 105.01 L 39.23 103.23 L 39.65 101.45 L 39.89 100.84 L 40.41 99.67 L 41.61 97.89 L 41.67 97.82 L 43.45 96.16 L 43.58 96.11 L 45.23 95.61 L 47.01 95.83 L 48.79 96.07 L 49.35 96.11 L 50.58 96.19 L 51.72 96.11 L 52.36 96.07 L 54.14 95.59 L 55.92 94.55 L 56.2 94.33 L 57.7 92.68 L 57.8 92.55 L 58.76 90.77 L 59.48 89.27 L 59.65 88.99 L 61.06 87.21 L 61.26 87.02 L 62.9 85.43 L 63.04 84.76 L 63.2 83.64 L 63.04 83.35 L 62 81.86 L 61.26 80.28 L 61.17 80.08 L 61.09 78.3 L 61.26 77.91 L 61.85 76.52 L 63.04 75.5 L 64.82 74.94 L 66.6 75.08 L 68.38 75.76 L 69.66 76.52 L 70.16 76.9 L 71.79 78.3 L 71.94 78.52 L 73.65 80.08 L 73.73 80.19 L 75.3 81.86 L 75.51 82.22 L 76.48 83.64 L 77.26 85.43 L 77.29 85.46 L 79.07 86.99 L 80.85 85.44 L 80.86 85.43 L 81.02 83.64 L 81.3 81.86 L 81.54 80.08 L 81.36 78.3 L 81.06 76.52 L 80.85 76.03 L 80.22 74.74 L 79.07 73.14 L 78.92 72.96 L 77.79 71.18 L 77.29 70.24 L 76.86 69.4 L 76.06 67.62 L 75.51 66.29 L 75.35 65.84 L 74.83 64.06 L 74.5 62.28 L 74.47 60.5 L 74.95 58.71 L 75.51 57.83 L 76.33 56.93 L 77.29 56.16 L 79.07 55.3 L 79.5 55.15 L 80.85 54.45 L 82.05 53.37 L 82.63 52.65 L 83.34 51.59 L 84.41 50.2 L 84.92 49.81 L 86.19 48.81 L 87.97 48.71 L 89.54 49.81 L 89.75 50.06 L 90.45 51.59 L 90.54 53.37 L 89.9 55.15 L 89.75 55.49 L 88.84 56.93 L 88.79 58.71 L 89.75 60.14 L 89.97 60.5 L 91.53 62.04 L 91.72 62.28 L 93.23 64.06 L 93.31 64.15 L 94.43 65.84 L 95.09 66.97 L 95.4 67.62 L 96.49 69.4 L 96.87 69.85 L 98.31 71.18 L 98.66 71.59 L 99.8 72.96 L 100.44 74.07 L 100.8 74.74 L 101.49 76.52 L 101.92 78.3 L 102.17 80.08 L 102.22 80.78 L 102.28 81.86 L 102.32 83.64 L 102.35 85.43 L 102.44 87.21 L 102.59 88.99 L 102.75 90.77 L 102.66 92.55 L 102.22 94.21 L 102.18 94.33 L 101.39 96.11 L 100.55 97.89 L 100.44 98.1 L 99.58 99.67 L 98.66 101.05 L 98.4 101.45 L 96.87 103.07 L 96.72 103.23 L 95.09 104.27 L 93.31 104.89 L 92.7 105.01 L 91.53 105.22 L 89.75 105.52 L 87.97 106 L 86.35 106.79 L 86.19 106.88 L 84.41 108.05 L 83.5 108.57 L 82.63 109.11 L 80.85 109.76 L 79.07 110.07 L 77.29 110.25 L 76.1 110.36 L 75.51 110.41 L 73.73 110.59 L 71.94 110.84 L 70.16 111.23 L 68.38 111.94 L 68.08 112.14 L 66.6 113.11 L 65.79 113.92 L 64.82 115 L 64.3 115.7 L 63.04 117.46 L 63.03 117.48 L 61.79 119.26 L 61.26 119.95 L 60.44 121.04 L 59.48 122.14 L 58.78 122.82 L 57.7 123.79 L 56.32 124.6 L 55.92 124.84 L 54.14 125.36 L 52.36 125.34 L 50.58 124.69 L 48.79 124.63 L 47.01 125.79 L 46.33 126.38 L 45.23 127.88 L 45.05 128.16 L 44.23 129.94 L 43.76 131.72 L 43.45 133.49 L 43.45 133.51 L 61.1 140.63 L 61.26 140.27 L 61.7 138.85 L 61.42 137.07 L 61.26 135.83 L 61.18 135.29 L 61.18 133.51 L 61.26 133.08 L 61.45 131.72 L 61.94 129.94 L 62.62 128.16 L 63.04 127.33 L 63.46 126.38 L 64.59 124.6 L 64.82 124.32 L 66.05 122.82 L 66.6 122.2 L 67.84 121.04 L 68.38 120.5 L 70.16 119.27 L 70.18 119.26 L 71.94 118.64 L 73.73 118.4 L 75.51 118.34 L 77.29 118.39 L 79.07 118.5 L 80.85 118.61 L 82.63 118.22 L 84.08 117.48 L 84.41 117.26 L 86.19 115.96 L 86.54 115.7 L 87.97 114.46 L 88.66 113.92 L 89.75 113.03 L 91.53 112.19 L 91.69 112.14 L 93.31 111.72 L 95.09 111.27 L 96.87 110.77 L 98.09 110.36 L 98.66 110.16 L 100.44 109.4 L 101.94 108.57 L 102.22 108.42 L 104 107.23 L 104.55 106.79 L 105.78 105.69 L 106.4 105.01 L 107.45 103.23 L 107.56 102.96 L 108.13 101.45 L 108.7 99.67 L 109.34 98.18 L 109.49 97.89 L 110.06 96.11 L 110.15 94.33 L 109.59 92.55 L 109.34 91.68 L 109.17 90.77 L 109.34 90.34 L 110.6 88.99 L 111.12 88.35 L 112.51 87.21 L 112.9 86.75 L 114.02 85.43 L 114.68 83.91 L 114.78 83.64 L 115.26 81.86 L 115.76 80.08 L 116.46 78.41 L 116.5 78.3 L 116.61 76.52 L 116.46 75.69 L 116.21 74.74 L 116.1 72.96 L 116.31 71.18 L 116.46 70.63 L 116.84 69.4 L 117.8 67.62 L 118.24 67.05 L 119.5 65.84 L 120.02 65.48 L 121.68 64.06 L 121.8 63.94 L 122.72 62.28 L 122.74 60.5 L 122.13 58.71 L 122.09 56.93 L 122.84 55.15 L 123.59 53.98 L 123.212 37.634 Z M 97.16 21.32 L 107 26.66 L 106.88 28.44 L 106.94 30.22 L 106.98 32 L 106.99 33.78 L 107.23 35.57 L 107.56 36.11 L 108.4 37.35 L 109.34 37.91 L 111.12 39.08 L 111.18 39.13 L 112.9 40.24 L 114.06 40.91 L 114.68 41.36 L 116.38 42.69 L 116.46 42.82 L 117.22 44.47 L 117.05 46.25 L 116.46 47.33 L 116 48.03 L 114.68 49.4 L 114.19 49.81 L 112.9 50.76 L 111.39 51.59 L 111.12 51.74 L 109.34 52.31 L 107.56 52.34 L 105.78 51.62 L 105.74 51.59 L 104.06 49.81 L 104 49.67 L 103.45 48.03 L 103.71 46.25 L 103.84 44.47 L 103.59 42.69 L 103.27 40.91 L 102.73 39.13 L 102.22 38.38 L 101.33 37.35 L 100.44 36.87 L 98.66 36.15 L 97.66 35.57 L 96.87 35.09 L 95.36 33.78 L 95.09 33.47 L 94.13 32 L 93.45 30.22 L 93.31 29.41 L 93.14 28.44 L 93.19 26.66 L 93.31 26.01 L 93.6 24.88 L 94.5 23.1 L 95.09 22.31 L 96.87 21.49 L 97.16 21.32 Z" style="fill-rule: evenodd; fill: #ED7953; stroke-width: 1.07; stroke: none;"/>
    <path d="M 107 26.66 L 97.16 21.32 L 96.87 21.49 L 95.09 22.31 L 94.5 23.1 L 93.6 24.88 L 93.31 26.01 L 93.19 26.66 L 93.14 28.44 L 93.31 29.41 L 93.45 30.22 L 94.13 32 L 95.09 33.47 L 95.36 33.78 L 96.87 35.09 L 97.66 35.57 L 98.66 36.15 L 100.44 36.87 L 101.33 37.35 L 102.22 38.38 L 102.73 39.13 L 103.27 40.91 L 103.59 42.69 L 103.84 44.47 L 103.71 46.25 L 103.45 48.03 L 104 49.67 L 104.06 49.81 L 105.74 51.59 L 105.78 51.62 L 107.56 52.34 L 109.34 52.31 L 111.12 51.74 L 111.39 51.59 L 112.9 50.76 L 114.19 49.81 L 114.68 49.4 L 116 48.03 L 116.46 47.33 L 117.05 46.25 L 117.22 44.47 L 116.46 42.82 L 116.38 42.69 L 114.68 41.36 L 114.06 40.91 L 112.9 40.24 L 111.18 39.13 L 111.12 39.08 L 109.34 37.91 L 108.4 37.35 L 107.56 36.11 L 107.23 35.57 L 106.99 33.78 L 106.98 32 L 106.94 30.22 L 106.88 28.44 L 107 26.66 Z M 87.97 48.71 L 86.19 48.81 L 84.92 49.81 L 84.41 50.2 L 83.34 51.59 L 82.63 52.65 L 82.05 53.37 L 80.85 54.45 L 79.5 55.15 L 79.07 55.3 L 77.29 56.16 L 76.33 56.93 L 75.51 57.83 L 74.95 58.71 L 74.47 60.5 L 74.5 62.28 L 74.83 64.06 L 75.35 65.84 L 75.51 66.29 L 76.06 67.62 L 76.86 69.4 L 77.29 70.24 L 77.79 71.18 L 78.92 72.96 L 79.07 73.14 L 80.22 74.74 L 80.85 76.03 L 81.06 76.52 L 81.36 78.3 L 81.54 80.08 L 81.3 81.86 L 81.02 83.64 L 80.86 85.43 L 80.85 85.44 L 79.07 86.99 L 77.29 85.46 L 77.26 85.43 L 76.48 83.64 L 75.51 82.22 L 75.3 81.86 L 73.73 80.19 L 73.65 80.08 L 71.94 78.52 L 71.79 78.3 L 70.16 76.9 L 69.66 76.52 L 68.38 75.76 L 66.6 75.08 L 64.82 74.94 L 63.04 75.5 L 61.85 76.52 L 61.26 77.91 L 61.09 78.3 L 61.17 80.08 L 61.26 80.28 L 62 81.86 L 63.04 83.35 L 63.2 83.64 L 63.04 84.76 L 62.9 85.43 L 61.26 87.02 L 61.06 87.21 L 59.65 88.99 L 59.48 89.27 L 58.76 90.77 L 57.8 92.55 L 57.7 92.68 L 56.2 94.33 L 55.92 94.55 L 54.14 95.59 L 52.36 96.07 L 51.72 96.11 L 50.58 96.19 L 49.35 96.11 L 48.79 96.07 L 47.01 95.83 L 45.23 95.61 L 43.58 96.11 L 43.45 96.16 L 41.67 97.82 L 41.61 97.89 L 40.41 99.67 L 39.89 100.84 L 39.65 101.45 L 39.23 103.23 L 39.09 105.01 L 39.17 106.79 L 39.32 108.57 L 39.32 110.36 L 39.04 112.14 L 38.41 113.92 L 38.11 114.54 L 37.41 115.7 L 36.68 117.48 L 36.48 119.26 L 36.47 121.04 L 36.33 121.94 L 36.13 122.82 L 35.15 124.6 L 43.76 131.72 L 44.23 129.94 L 45.05 128.16 L 45.23 127.88 L 46.33 126.38 L 47.01 125.79 L 48.79 124.63 L 50.58 124.69 L 52.36 125.34 L 54.14 125.36 L 55.92 124.84 L 56.32 124.6 L 57.7 123.79 L 58.78 122.82 L 59.48 122.14 L 60.44 121.04 L 61.26 119.95 L 61.79 119.26 L 63.03 117.48 L 63.04 117.46 L 64.3 115.7 L 64.82 115 L 65.79 113.92 L 66.6 113.11 L 68.08 112.14 L 68.38 111.94 L 70.16 111.23 L 71.94 110.84 L 73.73 110.59 L 75.51 110.41 L 76.1 110.36 L 77.29 110.25 L 79.07 110.07 L 80.85 109.76 L 82.63 109.11 L 83.5 108.57 L 84.41 108.05 L 86.19 106.88 L 86.35 106.79 L 87.97 106 L 89.75 105.52 L 91.53 105.22 L 92.7 105.01 L 93.31 104.89 L 95.09 104.27 L 96.72 103.23 L 96.87 103.07 L 98.4 101.45 L 98.66 101.05 L 99.58 99.67 L 100.44 98.1 L 100.55 97.89 L 101.39 96.11 L 102.18 94.33 L 102.22 94.21 L 102.66 92.55 L 102.75 90.77 L 102.59 88.99 L 102.44 87.21 L 102.35 85.43 L 102.32 83.64 L 102.28 81.86 L 102.22 80.78 L 102.17 80.08 L 101.92 78.3 L 101.49 76.52 L 100.8 74.74 L 100.44 74.07 L 99.8 72.96 L 98.66 71.59 L 98.31 71.18 L 96.87 69.85 L 96.49 69.4 L 95.4 67.62 L 95.09 66.97 L 94.43 65.84 L 93.31 64.15 L 93.23 64.06 L 91.72 62.28 L 91.53 62.04 L 89.97 60.5 L 89.75 60.14 L 88.79 58.71 L 88.84 56.93 L 89.75 55.49 L 89.9 55.15 L 90.54 53.37 L 90.45 51.59 L 89.75 50.06 L 89.54 49.81 L 87.97 48.71 Z M 71.94 95.5 L 72.48 96.11 L 73.05 97.89 L 72.74 99.67 L 71.94 100.55 L 70.16 100.6 L 69.25 99.67 L 68.89 97.89 L 69.51 96.11 L 70.16 95.42 L 71.94 95.5 Z M 86.64 97.89 L 86.19 98.39 L 85.83 97.89 L 86.19 97.61 L 86.64 97.89 Z M 55.92 109.24 L 56.89 110.36 L 57.7 112.03 L 57.72 112.14 L 57.7 112.18 L 56.3 113.92 L 55.92 114.26 L 54.14 114.01 L 54.03 113.92 L 52.95 112.14 L 52.77 110.36 L 54.14 108.97 L 55.92 109.24 Z" style="fill-rule: evenodd; fill: #FDB32F; stroke-width: 1.07; stroke: none;"/>
    <path d="M 71.94 95.5 L 70.16 95.42 L 69.51 96.11 L 68.89 97.89 L 69.25 99.67 L 70.16 100.6 L 71.94 100.55 L 72.74 99.67 L 73.05 97.89 L 72.48 96.11 L 71.94 95.5 Z M 86.64 97.89 L 86.19 97.61 L 85.83 97.89 L 86.19 98.39 L 86.64 97.89 Z M 55.92 109.24 L 54.14 108.97 L 52.77 110.36 L 52.95 112.14 L 54.03 113.92 L 54.14 114.01 L 55.92 114.26 L 56.3 113.92 L 57.7 112.18 L 57.72 112.14 L 57.7 112.03 L 56.89 110.36 L 55.92 109.24 Z" style="fill-rule: evenodd; fill: #F0F921; stroke-width: 1.07; stroke: none;"/>
  </g>
  <g clip-path="url(#cpMC4wMHwxMjQuNDR8MC4xNHwxNDQuMDA=)"/>
  <g clip-path="url(#cpMC4wMHwxMjQuNDR8MC4wMHwxNDQuMDA=)"/>
  <g clip-path="url(#cpMC4wMHwxMjQuNDR8MC4xNHwxNDQuMDA=)"/>
  <g clip-path="url(#cpMC4wMHwxMjQuNDR8MC4wMHwxNDQuMDA=)"/>
  <g clip-path="url(#cpMC4wMHwxMjQuNDR8MC4xNHwxNDQuMDA=)"/>
  <g clip-path="url(#cpMC4wMHwxMjQuNDR8MC4wMHwxNDQuMDA=)"/>
  <g clip-path="url(#cpMC4wMHwxMjQuNDR8MC4xNHwxNDQuMDA=)"/>
  <g clip-path="url(#cpMC4wMHwxMjQuNDR8MC4wMHwxNDQuMDA=)"/>
  <g clip-path="url(#cpMC4wMHwxMjQuNDR8MC4xNHwxNDQuMDA=)"/>
  <g clip-path="url(#cpMC4wMHwxMjQuNDR8MC4wMHwxNDQuMDA=)"/>
  <g clip-path="url(#cpMC4wMHwxMjQuNDR8MC4xNHwxNDQuMDA=)"/>
  <g clip-path="url(#cpMC4wMHwxMjQuNDR8MC4wMHwxNDQuMDA=)"/>
  <g clip-path="url(#cpMC4wMHwxMjQuNDR8MC4xNHwxNDQuMDA=)"/>
  <g clip-path="url(#cpMC4wMHwxMjQuNDR8MC4wMHwxNDQuMDA=)"/>
  <g clip-path="url(#cpMC4wMHwxMjQuNDR8MC4xNHwxNDQuMDA=)"/>
  <g clip-path="url(#cpMC4wMHwxMjQuNDR8MC4wMHwxNDQuMDA=)"/>
  <g clip-path="url(#cpMC4wMHwxMjQuNDR8MC4xNHwxNDQuMDA=)"/>
  <g clip-path="url(#cpMC4wMHwxMjQuNDR8MC4wMHwxNDQuMDA=)"/>
  <g clip-path="url(#cpMC4wMHwxMjQuNDR8MC4xNHwxNDQuMDA=)"/>
  <g clip-path="url(#cpMC4wMHwxMjQuNDR8MC4wMHwxNDQuMDA=)"/>
  <g clip-path="url(#cpMC4wMHwxMjQuNDR8MC4xNHwxNDQuMDA=)"/>
  <g clip-path="url(#cpMC4wMHwxMjQuNDR8MC4wMHwxNDQuMDA=)"/>
  <g clip-path="url(#cpMC4wMHwxMjQuNDR8MC4xNHwxNDQuMDA=)"/>
  <g clip-path="url(#cpMC4wMHwxMjQuNDR8MC4wMHwxNDQuMDA=)"/>
  <g clip-path="url(#cpMC4wMHwxMjQuNDR8MC4xNHwxNDQuMDA=)"/>
  <g clip-path="url(#cpMC4wMHwxMjQuNDR8MC4wMHwxNDQuMDA=)"/>
  <g clip-path="url(#cpMC4wMHwxMjQuNDR8MC4xNHwxNDQuMDA=)"/>
  <g clip-path="url(#cpMC4wMHwxMjQuNDR8MC4wMHwxNDQuMDA=)"/>
  <g clip-path="url(#cpMC4wMHwxMjQuNDR8MC4xNHwxNDQuMDA=)"/>
  <g clip-path="url(#cpMC4wMHwxMjQuNDR8MC4wMHwxNDQuMDA=)"/>
  <g clip-path="url(#cpMC4wMHwxMjQuNDR8MC4xNHwxNDQuMDA=)"/>
  <g clip-path="url(#cpMC4wMHwxMjQuNDR8MC4wMHwxNDQuMDA=)"/>
  <g clip-path="url(#cpMC4wMHwxMjQuNDR8MC4xNHwxNDQuMDA=)">
    <polygon points="1.08,36.81 1.08,107.33 62.15,142.59 123.22,107.33 123.22,36.81 62.15,1.55 1.08,36.81 " style="stroke-width: 4.27; stroke: #FFFFFF;"/>
    <path d="M 12.49 73.80 L 12.49 73.80 L 12.50 73.18 L 12.53 72.59 L 12.59 72.04 L 12.67 71.51 L 12.77 71.02 L 12.90 70.56 L 13.05 70.13 L 13.22 69.73 L 13.42 69.36 L 13.64 69.02 L 13.64 69.02 L 13.88 68.71 L 14.14 68.43 L 14.42 68.19 L 14.73 67.98 L 15.05 67.80 L 15.40 67.65 L 15.77 67.54 L 16.16 67.46 L 16.57 67.41 L 17.00 67.39 L 17.00 67.39 L 17.40 67.41 L 17.79 67.46 L 18.15 67.55 L 18.49 67.68 L 18.82 67.83 L 19.12 68.03 L 19.40 68.26 L 19.67 68.52 L 19.91 68.82 L 20.14 69.16 L 20.25 67.64 L 22.25 67.64 L 22.25 81.30 L 22.25 81.30 L 22.24 81.79 L 22.20 82.26 L 22.14 82.70 L 22.05 83.12 L 21.93 83.52 L 21.79 83.89 L 21.62 84.24 L 21.43 84.57 L 21.21 84.87 L 20.96 85.15 L 20.96 85.15 L 20.70 85.41 L 20.41 85.64 L 20.10 85.84 L 19.77 86.01 L 19.42 86.16 L 19.05 86.28 L 18.66 86.38 L 18.25 86.45 L 17.82 86.49 L 17.37 86.50 L 17.37 86.50 L 17.17 86.49 L 16.96 86.48 L 16.75 86.45 L 16.53 86.42 L 16.31 86.37 L 16.08 86.32 L 15.85 86.25 L 15.61 86.18 L 15.37 86.09 L 15.12 86.00 L 15.12 86.00 L 14.88 85.90 L 14.65 85.79 L 14.44 85.69 L 14.23 85.57 L 14.04 85.45 L 13.86 85.33 L 13.69 85.20 L 13.54 85.07 L 13.39 84.93 L 13.26 84.79 L 14.16 83.26 L 14.16 83.26 L 14.44 83.52 L 14.72 83.75 L 15.01 83.95 L 15.31 84.13 L 15.61 84.27 L 15.92 84.40 L 16.23 84.49 L 16.55 84.56 L 16.87 84.60 L 17.20 84.61 L 17.20 84.61 L 17.73 84.58 L 18.20 84.49 L 18.62 84.34 L 18.98 84.13 L 19.29 83.86 L 19.55 83.53 L 19.75 83.13 L 19.90 82.68 L 20.00 82.17 L 20.04 81.60 L 20.04 79.83 L 20.04 79.83 L 19.81 80.14 L 19.57 80.41 L 19.31 80.64 L 19.03 80.85 L 18.74 81.03 L 18.42 81.17 L 18.09 81.28 L 17.74 81.36 L 17.37 81.41 L 16.99 81.42 L 16.99 81.42 L 16.58 81.41 L 16.18 81.36 L 15.81 81.28 L 15.45 81.17 L 15.12 81.03 L 14.80 80.86 L 14.50 80.65 L 14.22 80.41 L 13.96 80.15 L 13.71 79.85 L 13.71 79.85 L 13.49 79.52 L 13.29 79.16 L 13.11 78.77 L 12.95 78.36 L 12.82 77.92 L 12.71 77.45 L 12.62 76.95 L 12.55 76.43 L 12.51 75.87 L 12.49 75.30 L 12.49 73.80 ZM 14.70 75.06 L 14.70 75.06 L 14.71 75.50 L 14.73 75.92 L 14.76 76.32 L 14.81 76.69 L 14.86 77.03 L 14.94 77.36 L 15.02 77.66 L 15.12 77.93 L 15.24 78.18 L 15.36 78.41 L 15.36 78.41 L 15.51 78.61 L 15.67 78.79 L 15.84 78.95 L 16.04 79.09 L 16.25 79.21 L 16.48 79.30 L 16.72 79.38 L 16.99 79.43 L 17.27 79.46 L 17.56 79.47 L 17.56 79.47 L 17.88 79.46 L 18.19 79.40 L 18.48 79.32 L 18.75 79.20 L 19.01 79.05 L 19.25 78.86 L 19.47 78.65 L 19.67 78.39 L 19.86 78.11 L 20.04 77.78 L 20.04 71.02 L 20.04 71.02 L 19.86 70.70 L 19.66 70.42 L 19.46 70.17 L 19.23 69.96 L 18.99 69.77 L 18.74 69.62 L 18.47 69.51 L 18.19 69.42 L 17.90 69.37 L 17.59 69.36 L 17.59 69.36 L 17.29 69.37 L 17.01 69.40 L 16.75 69.45 L 16.50 69.53 L 16.27 69.63 L 16.06 69.74 L 15.87 69.88 L 15.69 70.05 L 15.53 70.23 L 15.39 70.43 L 15.39 70.43 L 15.26 70.66 L 15.14 70.90 L 15.04 71.17 L 14.95 71.47 L 14.88 71.78 L 14.82 72.12 L 14.77 72.48 L 14.73 72.87 L 14.71 73.28 L 14.70 73.71 L 14.70 75.06 Z" style="fill-rule: nonzero; fill: #FFFFFF; stroke-width: 0.75; stroke: none;"/>
    <path d="M 25.10 73.80 L 25.10 73.80 L 25.11 73.18 L 25.15 72.59 L 25.21 72.04 L 25.29 71.51 L 25.39 71.02 L 25.52 70.56 L 25.67 70.13 L 25.84 69.73 L 26.03 69.36 L 26.25 69.02 L 26.25 69.02 L 26.49 68.71 L 26.75 68.43 L 27.04 68.19 L 27.34 67.98 L 27.67 67.80 L 28.02 67.65 L 28.38 67.54 L 28.77 67.46 L 29.18 67.41 L 29.62 67.39 L 29.62 67.39 L 30.02 67.41 L 30.40 67.46 L 30.76 67.55 L 31.11 67.68 L 31.43 67.83 L 31.74 68.03 L 32.02 68.26 L 32.28 68.52 L 32.53 68.82 L 32.75 69.16 L 32.87 67.64 L 34.87 67.64 L 34.87 81.30 L 34.87 81.30 L 34.85 81.79 L 34.82 82.26 L 34.75 82.70 L 34.66 83.12 L 34.55 83.52 L 34.40 83.89 L 34.24 84.24 L 34.04 84.57 L 33.82 84.87 L 33.58 85.15 L 33.58 85.15 L 33.31 85.41 L 33.02 85.64 L 32.72 85.84 L 32.39 86.01 L 32.04 86.16 L 31.67 86.28 L 31.28 86.38 L 30.87 86.45 L 30.44 86.49 L 29.99 86.50 L 29.99 86.50 L 29.79 86.49 L 29.58 86.48 L 29.37 86.45 L 29.15 86.42 L 28.93 86.37 L 28.70 86.32 L 28.47 86.25 L 28.23 86.18 L 27.99 86.09 L 27.74 86.00 L 27.74 86.00 L 27.50 85.90 L 27.27 85.79 L 27.05 85.69 L 26.85 85.57 L 26.66 85.45 L 26.48 85.33 L 26.31 85.20 L 26.15 85.07 L 26.01 84.93 L 25.88 84.79 L 26.78 83.26 L 26.78 83.26 L 27.06 83.52 L 27.34 83.75 L 27.63 83.95 L 27.92 84.13 L 28.22 84.27 L 28.53 84.40 L 28.84 84.49 L 29.16 84.56 L 29.49 84.60 L 29.82 84.61 L 29.82 84.61 L 30.34 84.58 L 30.81 84.49 L 31.23 84.34 L 31.60 84.13 L 31.91 83.86 L 32.16 83.53 L 32.37 83.13 L 32.52 82.68 L 32.61 82.17 L 32.65 81.60 L 32.65 79.83 L 32.65 79.83 L 32.43 80.14 L 32.19 80.41 L 31.93 80.64 L 31.65 80.85 L 31.35 81.03 L 31.04 81.17 L 30.71 81.28 L 30.36 81.36 L 29.99 81.41 L 29.60 81.42 L 29.60 81.42 L 29.19 81.41 L 28.80 81.36 L 28.43 81.28 L 28.07 81.17 L 27.73 81.03 L 27.42 80.86 L 27.12 80.65 L 26.83 80.41 L 26.57 80.15 L 26.33 79.85 L 26.33 79.85 L 26.10 79.52 L 25.90 79.16 L 25.72 78.77 L 25.57 78.36 L 25.43 77.92 L 25.32 77.45 L 25.23 76.95 L 25.17 76.43 L 25.12 75.87 L 25.10 75.30 L 25.10 73.80 ZM 27.32 75.06 L 27.32 75.06 L 27.32 75.50 L 27.34 75.92 L 27.37 76.32 L 27.42 76.69 L 27.48 77.03 L 27.55 77.36 L 27.64 77.66 L 27.74 77.93 L 27.85 78.18 L 27.98 78.41 L 27.98 78.41 L 28.12 78.61 L 28.28 78.79 L 28.46 78.95 L 28.65 79.09 L 28.87 79.21 L 29.09 79.30 L 29.34 79.38 L 29.60 79.43 L 29.88 79.46 L 30.18 79.47 L 30.18 79.47 L 30.50 79.46 L 30.81 79.40 L 31.09 79.32 L 31.37 79.20 L 31.62 79.05 L 31.86 78.86 L 32.08 78.65 L 32.29 78.39 L 32.48 78.11 L 32.65 77.78 L 32.65 71.02 L 32.65 71.02 L 32.47 70.70 L 32.28 70.42 L 32.07 70.17 L 31.85 69.96 L 31.61 69.77 L 31.36 69.62 L 31.09 69.51 L 30.81 69.42 L 30.51 69.37 L 30.20 69.36 L 30.20 69.36 L 29.91 69.37 L 29.63 69.40 L 29.36 69.45 L 29.12 69.53 L 28.89 69.63 L 28.68 69.74 L 28.48 69.88 L 28.31 70.05 L 28.15 70.23 L 28.00 70.43 L 28.00 70.43 L 27.87 70.66 L 27.76 70.90 L 27.66 71.17 L 27.57 71.47 L 27.49 71.78 L 27.43 72.12 L 27.38 72.48 L 27.35 72.87 L 27.32 73.28 L 27.32 73.71 L 27.32 75.06 Z" style="fill-rule: nonzero; fill: #FFFFFF; stroke-width: 0.75; stroke: none;"/>
    <path d="M 44.73 77.71 L 44.73 77.71 L 44.73 77.57 L 44.71 77.43 L 44.68 77.30 L 44.65 77.17 L 44.60 77.05 L 44.54 76.93 L 44.47 76.81 L 44.39 76.70 L 44.30 76.59 L 44.20 76.48 L 44.20 76.48 L 44.08 76.38 L 43.94 76.27 L 43.78 76.16 L 43.60 76.05 L 43.41 75.93 L 43.19 75.81 L 42.95 75.68 L 42.69 75.55 L 42.42 75.42 L 42.12 75.28 L 42.12 75.28 L 41.77 75.14 L 41.45 75.00 L 41.14 74.86 L 40.86 74.73 L 40.59 74.60 L 40.35 74.47 L 40.13 74.35 L 39.93 74.24 L 39.75 74.13 L 39.59 74.02 L 39.59 74.02 L 39.45 73.91 L 39.32 73.81 L 39.19 73.69 L 39.07 73.58 L 38.96 73.46 L 38.85 73.34 L 38.76 73.22 L 38.67 73.09 L 38.58 72.96 L 38.51 72.83 L 38.51 72.83 L 38.44 72.70 L 38.38 72.55 L 38.32 72.41 L 38.27 72.25 L 38.23 72.10 L 38.20 71.93 L 38.18 71.77 L 38.16 71.59 L 38.15 71.41 L 38.14 71.23 L 38.14 71.23 L 38.16 70.91 L 38.19 70.59 L 38.25 70.29 L 38.34 70.00 L 38.44 69.72 L 38.58 69.45 L 38.73 69.20 L 38.91 68.95 L 39.12 68.72 L 39.34 68.49 L 39.34 68.49 L 39.59 68.29 L 39.86 68.10 L 40.13 67.93 L 40.42 67.79 L 40.72 67.67 L 41.04 67.57 L 41.37 67.49 L 41.71 67.44 L 42.06 67.40 L 42.43 67.39 L 42.43 67.39 L 42.82 67.41 L 43.19 67.44 L 43.55 67.50 L 43.89 67.58 L 44.21 67.68 L 44.52 67.81 L 44.82 67.96 L 45.10 68.13 L 45.36 68.33 L 45.61 68.54 L 45.61 68.54 L 45.84 68.78 L 46.04 69.03 L 46.22 69.29 L 46.38 69.57 L 46.51 69.86 L 46.62 70.16 L 46.70 70.47 L 46.76 70.80 L 46.80 71.14 L 46.81 71.49 L 44.61 71.49 L 44.61 71.49 L 44.60 71.32 L 44.58 71.14 L 44.55 70.97 L 44.51 70.81 L 44.45 70.65 L 44.39 70.50 L 44.31 70.35 L 44.22 70.21 L 44.11 70.07 L 44.00 69.94 L 44.00 69.94 L 43.87 69.82 L 43.74 69.71 L 43.60 69.61 L 43.45 69.53 L 43.30 69.46 L 43.14 69.40 L 42.97 69.35 L 42.80 69.32 L 42.62 69.30 L 42.43 69.29 L 42.43 69.29 L 42.24 69.30 L 42.06 69.31 L 41.88 69.34 L 41.72 69.38 L 41.56 69.42 L 41.41 69.48 L 41.27 69.55 L 41.14 69.62 L 41.01 69.71 L 40.89 69.81 L 40.89 69.81 L 40.79 69.91 L 40.70 70.02 L 40.61 70.14 L 40.54 70.26 L 40.48 70.39 L 40.43 70.53 L 40.39 70.68 L 40.37 70.83 L 40.35 70.99 L 40.34 71.16 L 40.34 71.16 L 40.35 71.29 L 40.36 71.42 L 40.38 71.54 L 40.41 71.66 L 40.44 71.77 L 40.49 71.87 L 40.54 71.97 L 40.60 72.07 L 40.67 72.16 L 40.74 72.25 L 40.74 72.25 L 40.84 72.33 L 40.95 72.42 L 41.09 72.52 L 41.26 72.62 L 41.44 72.72 L 41.65 72.83 L 41.88 72.95 L 42.13 73.07 L 42.41 73.20 L 42.71 73.33 L 42.71 73.33 L 43.18 73.53 L 43.63 73.72 L 44.04 73.91 L 44.43 74.10 L 44.78 74.29 L 45.10 74.47 L 45.38 74.66 L 45.64 74.85 L 45.86 75.04 L 46.06 75.22 L 46.06 75.22 L 46.23 75.41 L 46.38 75.61 L 46.51 75.81 L 46.63 76.03 L 46.72 76.26 L 46.80 76.50 L 46.87 76.74 L 46.91 77.00 L 46.94 77.27 L 46.95 77.55 L 46.95 77.55 L 46.93 77.89 L 46.90 78.22 L 46.84 78.54 L 46.75 78.85 L 46.64 79.13 L 46.51 79.41 L 46.35 79.67 L 46.17 79.92 L 45.96 80.15 L 45.73 80.37 L 45.73 80.37 L 45.48 80.57 L 45.21 80.75 L 44.93 80.91 L 44.63 81.04 L 44.31 81.16 L 43.98 81.25 L 43.63 81.33 L 43.26 81.38 L 42.88 81.41 L 42.48 81.42 L 42.48 81.42 L 42.07 81.41 L 41.67 81.37 L 41.29 81.31 L 40.92 81.23 L 40.57 81.12 L 40.23 80.99 L 39.92 80.83 L 39.61 80.65 L 39.33 80.44 L 39.06 80.21 L 39.06 80.21 L 38.81 79.96 L 38.58 79.70 L 38.39 79.42 L 38.22 79.14 L 38.07 78.83 L 37.95 78.52 L 37.86 78.19 L 37.80 77.85 L 37.76 77.50 L 37.74 77.13 L 39.97 77.13 L 39.97 77.13 L 39.98 77.35 L 40.01 77.56 L 40.05 77.77 L 40.10 77.96 L 40.16 78.14 L 40.23 78.31 L 40.32 78.47 L 40.42 78.62 L 40.53 78.76 L 40.66 78.90 L 40.66 78.90 L 40.79 79.02 L 40.94 79.13 L 41.09 79.22 L 41.26 79.31 L 41.44 79.38 L 41.63 79.43 L 41.82 79.48 L 42.03 79.51 L 42.25 79.53 L 42.48 79.53 L 42.48 79.53 L 42.70 79.53 L 42.90 79.52 L 43.10 79.49 L 43.28 79.46 L 43.45 79.41 L 43.61 79.36 L 43.77 79.30 L 43.91 79.22 L 44.04 79.14 L 44.16 79.05 L 44.16 79.05 L 44.27 78.94 L 44.36 78.83 L 44.45 78.72 L 44.53 78.59 L 44.59 78.46 L 44.64 78.33 L 44.68 78.18 L 44.71 78.03 L 44.73 77.87 L 44.73 77.71 Z" style="fill-rule: nonzero; fill: #FFFFFF; stroke-width: 0.75; stroke: none;"/>
    <path d="M 59.60 75.06 L 59.60 75.06 L 59.59 75.68 L 59.55 76.28 L 59.49 76.84 L 59.41 77.37 L 59.31 77.86 L 59.18 78.32 L 59.03 78.75 L 58.86 79.15 L 58.66 79.52 L 58.44 79.85 L 58.44 79.85 L 58.20 80.15 L 57.94 80.41 L 57.66 80.65 L 57.36 80.86 L 57.05 81.03 L 56.71 81.17 L 56.35 81.28 L 55.98 81.36 L 55.59 81.41 L 55.17 81.42 L 55.17 81.42 L 54.78 81.41 L 54.40 81.36 L 54.03 81.28 L 53.69 81.18 L 53.37 81.04 L 53.07 80.87 L 52.78 80.67 L 52.51 80.44 L 52.26 80.18 L 52.03 79.88 L 52.03 86.37 L 49.83 86.37 L 49.83 67.64 L 51.83 67.64 L 51.95 69.14 L 51.95 69.14 L 52.18 68.81 L 52.43 68.51 L 52.70 68.25 L 52.99 68.02 L 53.30 67.83 L 53.63 67.67 L 53.98 67.55 L 54.34 67.46 L 54.73 67.41 L 55.14 67.39 L 55.14 67.39 L 55.57 67.41 L 55.98 67.46 L 56.37 67.53 L 56.74 67.64 L 57.08 67.78 L 57.40 67.95 L 57.70 68.15 L 57.98 68.39 L 58.23 68.65 L 58.46 68.94 L 58.46 68.94 L 58.67 69.27 L 58.86 69.63 L 59.03 70.01 L 59.17 70.43 L 59.30 70.88 L 59.40 71.36 L 59.48 71.87 L 59.54 72.41 L 59.58 72.98 L 59.60 73.58 L 59.60 75.06 ZM 57.40 73.80 L 57.40 73.80 L 57.39 73.35 L 57.37 72.93 L 57.34 72.54 L 57.29 72.17 L 57.22 71.82 L 57.15 71.50 L 57.06 71.20 L 56.95 70.92 L 56.83 70.67 L 56.70 70.44 L 56.70 70.44 L 56.55 70.24 L 56.38 70.05 L 56.20 69.89 L 56.00 69.75 L 55.79 69.63 L 55.55 69.53 L 55.30 69.45 L 55.03 69.40 L 54.75 69.37 L 54.45 69.36 L 54.45 69.36 L 54.14 69.37 L 53.84 69.42 L 53.56 69.50 L 53.30 69.61 L 53.05 69.75 L 52.82 69.93 L 52.60 70.13 L 52.40 70.37 L 52.21 70.64 L 52.03 70.94 L 52.03 77.98 L 52.03 77.98 L 52.21 78.28 L 52.39 78.54 L 52.60 78.78 L 52.82 78.98 L 53.05 79.15 L 53.30 79.29 L 53.57 79.40 L 53.86 79.47 L 54.16 79.52 L 54.47 79.53 L 54.47 79.53 L 54.77 79.52 L 55.04 79.49 L 55.30 79.44 L 55.55 79.36 L 55.77 79.27 L 55.99 79.15 L 56.18 79.01 L 56.36 78.85 L 56.53 78.66 L 56.67 78.46 L 56.67 78.46 L 56.81 78.23 L 56.93 77.98 L 57.04 77.70 L 57.13 77.41 L 57.21 77.09 L 57.28 76.74 L 57.33 76.38 L 57.37 75.99 L 57.39 75.58 L 57.40 75.15 L 57.40 73.80 Z" style="fill-rule: nonzero; fill: #FFFFFF; stroke-width: 0.75; stroke: none;"/>
    <path d="M 69.41 81.17 L 69.41 81.17 L 69.38 81.08 L 69.34 80.97 L 69.31 80.86 L 69.27 80.73 L 69.24 80.59 L 69.22 80.43 L 69.19 80.27 L 69.17 80.09 L 69.15 79.90 L 69.13 79.70 L 69.13 79.70 L 68.89 80.03 L 68.63 80.32 L 68.36 80.58 L 68.08 80.80 L 67.79 80.99 L 67.48 81.15 L 67.16 81.27 L 66.83 81.35 L 66.49 81.41 L 66.13 81.42 L 66.13 81.42 L 65.77 81.41 L 65.42 81.38 L 65.10 81.33 L 64.78 81.26 L 64.49 81.17 L 64.21 81.05 L 63.95 80.92 L 63.70 80.77 L 63.47 80.59 L 63.25 80.40 L 63.25 80.40 L 63.06 80.18 L 62.88 79.95 L 62.73 79.70 L 62.59 79.43 L 62.48 79.15 L 62.39 78.85 L 62.32 78.53 L 62.27 78.20 L 62.24 77.85 L 62.23 77.48 L 62.23 77.48 L 62.24 77.08 L 62.28 76.69 L 62.35 76.32 L 62.45 75.97 L 62.58 75.63 L 62.73 75.31 L 62.91 75.01 L 63.12 74.73 L 63.36 74.46 L 63.63 74.21 L 63.63 74.21 L 63.92 73.98 L 64.23 73.77 L 64.56 73.59 L 64.91 73.43 L 65.29 73.29 L 65.68 73.18 L 66.09 73.09 L 66.53 73.03 L 66.99 72.99 L 67.46 72.97 L 69.09 72.97 L 69.09 71.53 L 69.09 71.53 L 69.08 71.30 L 69.07 71.08 L 69.04 70.87 L 69.00 70.67 L 68.96 70.49 L 68.90 70.33 L 68.83 70.18 L 68.75 70.04 L 68.65 69.92 L 68.55 69.81 L 68.55 69.81 L 68.44 69.71 L 68.31 69.62 L 68.18 69.55 L 68.03 69.48 L 67.87 69.42 L 67.70 69.38 L 67.52 69.34 L 67.33 69.31 L 67.13 69.30 L 66.91 69.29 L 66.91 69.29 L 66.72 69.30 L 66.53 69.32 L 66.35 69.35 L 66.17 69.39 L 66.01 69.44 L 65.85 69.51 L 65.70 69.59 L 65.55 69.68 L 65.42 69.78 L 65.29 69.89 L 65.29 69.89 L 65.17 70.02 L 65.06 70.14 L 64.97 70.28 L 64.89 70.42 L 64.82 70.56 L 64.76 70.72 L 64.72 70.88 L 64.69 71.04 L 64.67 71.22 L 64.66 71.39 L 62.45 71.39 L 62.45 71.39 L 62.46 71.19 L 62.47 70.98 L 62.51 70.78 L 62.55 70.58 L 62.60 70.38 L 62.67 70.19 L 62.75 69.99 L 62.84 69.80 L 62.95 69.61 L 63.06 69.42 L 63.06 69.42 L 63.19 69.23 L 63.33 69.06 L 63.47 68.89 L 63.62 68.73 L 63.78 68.57 L 63.95 68.43 L 64.13 68.29 L 64.32 68.16 L 64.51 68.04 L 64.71 67.93 L 64.71 67.93 L 64.92 67.83 L 65.14 67.74 L 65.36 67.66 L 65.58 67.59 L 65.81 67.53 L 66.04 67.48 L 66.28 67.44 L 66.53 67.42 L 66.77 67.40 L 67.03 67.39 L 67.03 67.39 L 67.43 67.40 L 67.82 67.44 L 68.18 67.49 L 68.53 67.56 L 68.85 67.65 L 69.16 67.77 L 69.44 67.90 L 69.71 68.06 L 69.95 68.23 L 70.18 68.43 L 70.18 68.43 L 70.38 68.65 L 70.57 68.88 L 70.73 69.13 L 70.88 69.40 L 71.00 69.69 L 71.10 70.00 L 71.18 70.33 L 71.24 70.68 L 71.27 71.05 L 71.29 71.43 L 71.29 78.26 L 71.29 78.26 L 71.30 78.57 L 71.31 78.87 L 71.33 79.16 L 71.36 79.44 L 71.40 79.72 L 71.45 79.99 L 71.50 80.25 L 71.57 80.50 L 71.64 80.74 L 71.72 80.97 L 71.72 81.17 L 69.41 81.17 ZM 66.46 79.41 L 66.46 79.41 L 66.63 79.41 L 66.79 79.39 L 66.94 79.37 L 67.10 79.34 L 67.26 79.30 L 67.41 79.25 L 67.57 79.19 L 67.72 79.12 L 67.87 79.05 L 68.01 78.96 L 68.01 78.96 L 68.16 78.87 L 68.29 78.77 L 68.42 78.67 L 68.54 78.56 L 68.65 78.45 L 68.76 78.34 L 68.85 78.22 L 68.94 78.10 L 69.02 77.97 L 69.09 77.83 L 69.09 74.61 L 67.84 74.61 L 67.84 74.61 L 67.53 74.62 L 67.24 74.64 L 66.95 74.68 L 66.69 74.73 L 66.43 74.80 L 66.19 74.88 L 65.96 74.97 L 65.74 75.07 L 65.54 75.19 L 65.35 75.32 L 65.35 75.32 L 65.18 75.46 L 65.02 75.61 L 64.89 75.78 L 64.77 75.95 L 64.67 76.13 L 64.58 76.33 L 64.52 76.54 L 64.48 76.75 L 64.45 76.98 L 64.44 77.22 L 64.44 77.22 L 64.44 77.45 L 64.46 77.66 L 64.48 77.86 L 64.51 78.04 L 64.55 78.22 L 64.61 78.38 L 64.67 78.53 L 64.73 78.66 L 64.81 78.79 L 64.90 78.90 L 64.90 78.90 L 65.00 78.99 L 65.11 79.08 L 65.24 79.16 L 65.37 79.23 L 65.52 79.28 L 65.69 79.33 L 65.86 79.36 L 66.05 79.39 L 66.25 79.40 L 66.46 79.41 Z" style="fill-rule: nonzero; fill: #FFFFFF; stroke-width: 0.75; stroke: none;"/>
    <path d="M 77.62 64.37 L 77.62 67.64 L 79.66 67.64 L 79.66 69.43 L 77.62 69.43 L 77.62 77.82 L 77.62 77.82 L 77.62 77.98 L 77.63 78.13 L 77.64 78.27 L 77.66 78.40 L 77.68 78.53 L 77.71 78.64 L 77.75 78.75 L 77.79 78.85 L 77.83 78.95 L 77.88 79.03 L 77.88 79.03 L 77.94 79.11 L 78.00 79.18 L 78.07 79.25 L 78.15 79.30 L 78.24 79.34 L 78.33 79.38 L 78.43 79.41 L 78.54 79.43 L 78.66 79.44 L 78.78 79.45 L 78.78 79.45 L 78.87 79.45 L 78.96 79.44 L 79.04 79.43 L 79.13 79.42 L 79.22 79.41 L 79.31 79.39 L 79.40 79.37 L 79.49 79.35 L 79.58 79.33 L 79.67 79.30 L 79.64 81.17 L 79.64 81.17 L 79.49 81.22 L 79.34 81.26 L 79.19 81.30 L 79.04 81.33 L 78.88 81.36 L 78.73 81.38 L 78.57 81.40 L 78.42 81.41 L 78.26 81.42 L 78.10 81.42 L 78.10 81.42 L 77.85 81.41 L 77.60 81.39 L 77.37 81.34 L 77.15 81.27 L 76.95 81.19 L 76.75 81.09 L 76.57 80.96 L 76.40 80.82 L 76.25 80.66 L 76.10 80.49 L 76.10 80.49 L 75.97 80.29 L 75.86 80.08 L 75.75 79.85 L 75.66 79.61 L 75.59 79.35 L 75.53 79.08 L 75.48 78.79 L 75.44 78.49 L 75.42 78.17 L 75.42 77.83 L 75.42 69.43 L 73.35 69.43 L 73.35 67.64 L 75.42 67.64 L 75.42 64.37 L 77.62 64.37 Z" style="fill-rule: nonzero; fill: #FFFFFF; stroke-width: 0.75; stroke: none;"/>
    <path d="M 87.87 69.72 L 87.87 69.72 L 87.78 69.70 L 87.68 69.69 L 87.59 69.67 L 87.49 69.66 L 87.39 69.65 L 87.29 69.65 L 87.19 69.64 L 87.08 69.64 L 86.98 69.63 L 86.87 69.63 L 86.87 69.63 L 86.54 69.65 L 86.23 69.71 L 85.94 69.80 L 85.67 69.93 L 85.43 70.10 L 85.20 70.30 L 84.99 70.54 L 84.81 70.82 L 84.64 71.14 L 84.49 71.49 L 84.49 81.17 L 82.28 81.17 L 82.28 67.64 L 84.43 67.64 L 84.47 69.02 L 84.47 69.02 L 84.65 68.71 L 84.85 68.43 L 85.07 68.19 L 85.30 67.98 L 85.54 67.80 L 85.80 67.65 L 86.07 67.54 L 86.36 67.46 L 86.66 67.41 L 86.98 67.39 L 86.98 67.39 L 87.09 67.40 L 87.19 67.40 L 87.28 67.41 L 87.37 67.42 L 87.46 67.44 L 87.55 67.46 L 87.63 67.48 L 87.71 67.51 L 87.79 67.54 L 87.86 67.57 L 87.87 69.72 Z" style="fill-rule: nonzero; fill: #FFFFFF; stroke-width: 0.75; stroke: none;"/>
    <path d="M 94.91 81.42 L 94.91 81.42 L 94.42 81.41 L 93.95 81.36 L 93.50 81.29 L 93.08 81.18 L 92.68 81.05 L 92.30 80.88 L 91.95 80.69 L 91.62 80.46 L 91.32 80.21 L 91.03 79.92 L 91.03 79.92 L 90.78 79.61 L 90.55 79.26 L 90.34 78.89 L 90.17 78.49 L 90.01 78.06 L 89.89 77.60 L 89.79 77.12 L 89.72 76.61 L 89.68 76.06 L 89.66 75.50 L 89.66 73.86 L 89.66 73.86 L 89.67 73.27 L 89.71 72.70 L 89.78 72.16 L 89.87 71.65 L 89.99 71.16 L 90.13 70.70 L 90.30 70.27 L 90.50 69.86 L 90.72 69.48 L 90.97 69.12 L 90.97 69.12 L 91.25 68.79 L 91.54 68.50 L 91.86 68.24 L 92.20 68.01 L 92.56 67.83 L 92.94 67.67 L 93.34 67.55 L 93.76 67.46 L 94.20 67.41 L 94.66 67.39 L 94.66 67.39 L 95.12 67.41 L 95.56 67.45 L 95.98 67.53 L 96.37 67.64 L 96.74 67.77 L 97.08 67.94 L 97.40 68.14 L 97.69 68.36 L 97.96 68.62 L 98.21 68.91 L 98.21 68.91 L 98.43 69.23 L 98.63 69.58 L 98.81 69.97 L 98.97 70.39 L 99.10 70.84 L 99.21 71.33 L 99.29 71.85 L 99.36 72.41 L 99.39 73.00 L 99.41 73.62 L 99.41 75.07 L 91.86 75.07 L 91.86 75.38 L 91.86 75.38 L 91.87 75.81 L 91.89 76.21 L 91.93 76.58 L 91.99 76.93 L 92.06 77.26 L 92.15 77.57 L 92.26 77.85 L 92.38 78.10 L 92.52 78.34 L 92.67 78.55 L 92.67 78.55 L 92.84 78.73 L 93.03 78.90 L 93.23 79.05 L 93.45 79.18 L 93.68 79.29 L 93.92 79.38 L 94.18 79.45 L 94.45 79.50 L 94.73 79.52 L 95.03 79.53 L 95.03 79.53 L 95.23 79.53 L 95.42 79.52 L 95.60 79.50 L 95.78 79.48 L 95.95 79.44 L 96.12 79.40 L 96.28 79.36 L 96.44 79.30 L 96.60 79.24 L 96.75 79.17 L 96.75 79.17 L 96.90 79.09 L 97.04 79.01 L 97.19 78.91 L 97.33 78.80 L 97.47 78.69 L 97.61 78.57 L 97.75 78.44 L 97.88 78.30 L 98.02 78.15 L 98.15 78.00 L 99.30 79.40 L 99.30 79.40 L 99.00 79.78 L 98.66 80.13 L 98.30 80.43 L 97.91 80.69 L 97.48 80.92 L 97.03 81.10 L 96.54 81.24 L 96.03 81.34 L 95.48 81.40 L 94.91 81.42 ZM 94.66 69.29 L 94.66 69.29 L 94.39 69.30 L 94.14 69.33 L 93.90 69.38 L 93.67 69.45 L 93.46 69.53 L 93.27 69.64 L 93.08 69.76 L 92.92 69.90 L 92.76 70.06 L 92.62 70.24 L 92.62 70.24 L 92.49 70.44 L 92.38 70.66 L 92.28 70.90 L 92.18 71.16 L 92.10 71.44 L 92.03 71.75 L 91.98 72.07 L 91.93 72.42 L 91.89 72.78 L 91.87 73.17 L 97.20 73.17 L 97.20 72.87 L 97.20 72.87 L 97.18 72.50 L 97.14 72.14 L 97.10 71.81 L 97.04 71.51 L 96.98 71.22 L 96.90 70.96 L 96.82 70.71 L 96.72 70.49 L 96.62 70.30 L 96.50 70.12 L 96.50 70.12 L 96.37 69.96 L 96.23 69.82 L 96.08 69.70 L 95.92 69.59 L 95.74 69.50 L 95.55 69.43 L 95.35 69.37 L 95.13 69.33 L 94.90 69.30 L 94.66 69.29 Z" style="fill-rule: nonzero; fill: #FFFFFF; stroke-width: 0.75; stroke: none;"/>
    <path d="M 101.62 73.80 L 101.62 73.80 L 101.64 73.18 L 101.67 72.59 L 101.73 72.04 L 101.81 71.51 L 101.91 71.02 L 102.04 70.56 L 102.19 70.13 L 102.36 69.73 L 102.56 69.36 L 102.77 69.02 L 102.77 69.02 L 103.02 68.71 L 103.28 68.43 L 103.56 68.19 L 103.87 67.98 L 104.19 67.80 L 104.54 67.65 L 104.91 67.54 L 105.30 67.46 L 105.71 67.41 L 106.14 67.39 L 106.14 67.39 L 106.54 67.41 L 106.92 67.46 L 107.29 67.55 L 107.63 67.68 L 107.95 67.83 L 108.26 68.03 L 108.54 68.26 L 108.81 68.52 L 109.05 68.82 L 109.28 69.16 L 109.39 67.64 L 111.39 67.64 L 111.39 81.30 L 111.39 81.30 L 111.38 81.79 L 111.34 82.26 L 111.27 82.70 L 111.18 83.12 L 111.07 83.52 L 110.93 83.89 L 110.76 84.24 L 110.57 84.57 L 110.35 84.87 L 110.10 85.15 L 110.10 85.15 L 109.83 85.41 L 109.55 85.64 L 109.24 85.84 L 108.91 86.01 L 108.56 86.16 L 108.19 86.28 L 107.80 86.38 L 107.39 86.45 L 106.96 86.49 L 106.51 86.50 L 106.51 86.50 L 106.31 86.49 L 106.10 86.48 L 105.89 86.45 L 105.67 86.42 L 105.45 86.37 L 105.22 86.32 L 104.99 86.25 L 104.75 86.18 L 104.51 86.09 L 104.26 86.00 L 104.26 86.00 L 104.02 85.90 L 103.79 85.79 L 103.58 85.69 L 103.37 85.57 L 103.18 85.45 L 103.00 85.33 L 102.83 85.20 L 102.67 85.07 L 102.53 84.93 L 102.40 84.79 L 103.30 83.26 L 103.30 83.26 L 103.58 83.52 L 103.86 83.75 L 104.15 83.95 L 104.45 84.13 L 104.75 84.27 L 105.05 84.40 L 105.37 84.49 L 105.68 84.56 L 106.01 84.60 L 106.34 84.61 L 106.34 84.61 L 106.86 84.58 L 107.34 84.49 L 107.75 84.34 L 108.12 84.13 L 108.43 83.86 L 108.69 83.53 L 108.89 83.13 L 109.04 82.68 L 109.13 82.17 L 109.18 81.60 L 109.18 79.83 L 109.18 79.83 L 108.95 80.14 L 108.71 80.41 L 108.45 80.64 L 108.17 80.85 L 107.88 81.03 L 107.56 81.17 L 107.23 81.28 L 106.88 81.36 L 106.51 81.41 L 106.13 81.42 L 106.13 81.42 L 105.71 81.41 L 105.32 81.36 L 104.95 81.28 L 104.59 81.17 L 104.26 81.03 L 103.94 80.86 L 103.64 80.65 L 103.36 80.41 L 103.09 80.15 L 102.85 79.85 L 102.85 79.85 L 102.63 79.52 L 102.42 79.16 L 102.25 78.77 L 102.09 78.36 L 101.96 77.92 L 101.84 77.45 L 101.76 76.95 L 101.69 76.43 L 101.65 75.87 L 101.62 75.30 L 101.62 73.80 ZM 103.84 75.06 L 103.84 75.06 L 103.84 75.50 L 103.86 75.92 L 103.90 76.32 L 103.94 76.69 L 104.00 77.03 L 104.08 77.36 L 104.16 77.66 L 104.26 77.93 L 104.37 78.18 L 104.50 78.41 L 104.50 78.41 L 104.64 78.61 L 104.80 78.79 L 104.98 78.95 L 105.18 79.09 L 105.39 79.21 L 105.62 79.30 L 105.86 79.38 L 106.12 79.43 L 106.40 79.46 L 106.70 79.47 L 106.70 79.47 L 107.02 79.46 L 107.33 79.40 L 107.62 79.32 L 107.89 79.20 L 108.15 79.05 L 108.38 78.86 L 108.61 78.65 L 108.81 78.39 L 109.00 78.11 L 109.18 77.78 L 109.18 71.02 L 109.18 71.02 L 109.00 70.70 L 108.80 70.42 L 108.59 70.17 L 108.37 69.96 L 108.13 69.77 L 107.88 69.62 L 107.61 69.51 L 107.33 69.42 L 107.04 69.37 L 106.73 69.36 L 106.73 69.36 L 106.43 69.37 L 106.15 69.40 L 105.89 69.45 L 105.64 69.53 L 105.41 69.63 L 105.20 69.74 L 105.01 69.88 L 104.83 70.05 L 104.67 70.23 L 104.53 70.43 L 104.53 70.43 L 104.40 70.66 L 104.28 70.90 L 104.18 71.17 L 104.09 71.47 L 104.02 71.78 L 103.95 72.12 L 103.90 72.48 L 103.87 72.87 L 103.85 73.28 L 103.84 73.71 L 103.84 75.06 Z" style="fill-rule: nonzero; fill: #FFFFFF; stroke-width: 0.75; stroke: none;"/>
    <polygon points="1.08,36.81 1.08,107.33 62.15,142.59 123.22,107.33 123.22,36.81 62.15,1.55 1.08,36.81 " style="stroke-width: 2.13;"/>
  </g>
  <g clip-path="url(#cpMC4wMHwxMjQuNDR8MC4wMHwxNDQuMDA=)"/>
</svg>