<?xml version="1.0" encoding="utf-8"?>
<svg class="svglite" width="124.44pt" height="144.00pt" viewBox="0 0 124.44 144.00" xmlns="http://www.w3.org/2000/svg">
  <defs>
    <style type="text/css">
    .svglite line, .svglite polyline, .svglite polygon, .svglite path, .svglite rect, .svglite circle {
      fill: none;
      stroke: #000000;
      stroke-linecap: round;
      stroke-linejoin: round;
      stroke-miterlimit: 10.00;
    }
    .svglite text {
      white-space: pre;
    }
  </style>
  </defs>
  <rect width="100%" height="100%" style="stroke: none; fill: none;"/>
  <defs>
    <clipPath id="cpMC4wMHwxMjQuNDR8MC4wMHwxNDQuMDA=">
      <rect x="0.00" y="0.00" width="124.44" height="144.00"/>
    </clipPath>
  </defs>
  <g clip-path="url(#cpMC4wMHwxMjQuNDR8MC4wMHwxNDQuMDA=)"/>
  <defs>
    <clipPath id="cpMC4wMHwxMjQuNDR8MC4xNHwxNDMuODY=">
      <rect x="0.00" y="0.14" width="124.44" height="143.71"/>
    </clipPath>
  </defs>
  <g clip-path="url(#cpMC4wMHwxMjQuNDR8MC4xNHwxNDMuODY=)">
    <rect x="0.00" y="0.14" width="124.44" height="143.71" style="stroke-width: 1.07; stroke: none;"/>
  </g>
  <g clip-path="url(#cpMC4wMHwxMjQuNDR8MC4wMHwxNDQuMDA=)"/>
  <defs>
    <clipPath id="cpMC4wMHwxMjQuNDR8MC4xNHwxNDQuMDA=">
      <rect x="0.00" y="0.14" width="124.44" height="143.85"/>
    </clipPath>
  </defs>
  <g clip-path="url(#cpMC4wMHwxMjQuNDR8MC4xNHwxNDQuMDA=)">
    <rect x="-0.14" y="0.14" width="124.58" height="143.85" style="stroke-width: 1.07; stroke: none;"/>
    <polygon points="1.08,36.81 1.08,107.33 62.15,142.59 123.22,107.33 123.22,36.81 62.15,1.55 1.08,36.81 " style="stroke-width: 4.27; stroke: none; fill: rgb(235, 200, 213);"/>
  </g>
  <g clip-path="url(#cpMC4wMHwxMjQuNDR8MC4wMHwxNDQuMDA=)">
    <rect x="-71.83" y="-19.60" width="211.55" height="211.55" style="stroke-width: 0.75; stroke: none;"/>
  </g>
  <g clip-path="url(#cpMC4wMHwxMjQuNDR8MC4xNHwxNDQuMDA=)"/>
  <g clip-path="url(#cpMC4wMHwxMjQuNDR8MC4wMHwxNDQuMDA=)">
    <rect x="-71.83" y="-19.60" width="211.55" height="211.55" style="stroke-width: 0.75; stroke: none;"/>
    <polygon points="119.45999908447266 41.5 110.23999786376953 57.88999938964844 75.80000305175781 55.02000045776367 94.59200286865234 20.35700035095215 112.44999694824219 30.530000686645508" style="stroke-width: 1.07; stroke-linecap: butt; fill: #5DC863; fill-opacity: 0.60;"/>
    <polygon points="117.55,94.05 110.56,90.55 110.24,57.89 " style="stroke-width: 1.07; stroke-linecap: butt; fill: #440154; fill-opacity: 0.60;"/>
    <polygon points="-11.15,31.76 -50.33,16.71 -41.46,-2.41 -26.40,10.75 " style="stroke-width: 1.07; stroke-linecap: butt; fill: #3B528B; fill-opacity: 0.60;"/>
    <polygon points="12.396 37.15 3.502 35.091 13.027 29.838" style="stroke-width: 1.07; stroke-linecap: butt; fill: #5DC863; fill-opacity: 0.60;"/>
    <polygon points="16.88 45.3 1.697 36.456 14.496 29.541" style="stroke-width: 1.07; stroke-linecap: butt; fill: #5DC863; fill-opacity: 0.60;"/>
    <polygon points="30.50,115.66 9.35,75.97 47.95,80.46 " style="stroke-width: 1.07; stroke-linecap: butt; fill: #21908C; fill-opacity: 0.60;"/>
    <polygon points="-10.82,90.30 -22.60,98.08 9.35,75.97 " style="stroke-width: 1.07; stroke-linecap: butt; fill: #440154; fill-opacity: 0.60;"/>
    <polygon points="32.70,90.72 -10.82,90.30 9.35,75.97 33.50,82.59 " style="stroke-width: 1.07; stroke-linecap: butt; fill: #3B528B; fill-opacity: 0.60;"/>
    <polygon points="33.50,82.59 9.35,75.97 16.88,45.30 " style="stroke-width: 1.07; stroke-linecap: butt; fill: #440154; fill-opacity: 0.60;"/>
    <polygon points="9.35 75.97 12.371 37.006 16.88 45.3" style="stroke-width: 1.07; stroke-linecap: butt; fill: #440154; fill-opacity: 0.60;"/>
    <polygon points="58.77,90.48 33.50,82.59 64.87,49.11 " style="stroke-width: 1.07; stroke-linecap: butt; fill: #21908C; fill-opacity: 0.60;"/>
    <polygon points="58.77,90.48 47.95,80.46 64.87,49.11 75.80,55.02 " style="stroke-width: 1.07; stroke-linecap: butt; fill: #21908C; fill-opacity: 0.60;"/>
    <polygon points="58.77,90.48 32.70,90.72 33.50,82.59 63.11,57.16 " style="stroke-width: 1.07; stroke-linecap: butt; fill: #21908C; fill-opacity: 0.60;"/>
    <polygon points="66.34,107.33 53.09,118.14 30.50,115.66 32.70,90.72 33.50,82.59 47.95,80.46 58.77,90.48 " style="stroke-width: 1.07; stroke-linecap: butt; fill: #FDE725; fill-opacity: 0.60;"/>
    <polygon points="76.97,98.74 58.77,90.48 47.95,80.46 63.11,57.16 75.80,55.02 " style="stroke-width: 1.07; stroke-linecap: butt; fill: #21908C; fill-opacity: 0.60;"/>
    <polygon points="76.97,98.74 32.70,90.72 63.11,57.16 " style="stroke-width: 1.07; stroke-linecap: butt; fill: #21908C; fill-opacity: 0.60;"/>
    <polygon points="76.97,98.74 53.09,118.14 32.70,90.72 47.95,80.46 " style="stroke-width: 1.07; stroke-linecap: butt; fill: #5DC863; fill-opacity: 0.60;"/>
    <polygon points="-23.43,177.85 -59.64,166.13 -28.26,135.25 " style="stroke-width: 1.07; stroke-linecap: butt; fill: #440154; fill-opacity: 0.60;"/>
    <polygon points="105.04 117.12 85.84 121.51 95.67 105.41 110.56 90.55 117.55 94.05 123.05 99.07 123.22 107.491" style="stroke-width: 1.07; stroke-linecap: butt; fill: #5DC863; fill-opacity: 0.60;"/>
    <polygon points="105.04,117.12 87.30,125.87 76.97,98.74 110.56,90.55 117.55,94.05 " style="stroke-width: 1.07; stroke-linecap: butt; fill: #FDE725; fill-opacity: 0.60;"/>
    <polygon points="75.80,55.02 63.11,57.16 64.87,49.11 90.53,32.84 " style="stroke-width: 1.07; stroke-linecap: butt; fill: #3B528B; fill-opacity: 0.60;"/>
    <polygon points="75.80000305175781 55.02000045776367 64.87000274658203 49.11000061035156 93.39700317382812 19.709999084472656 95.10800170898438 20.808000564575195 90.52999877929688 32.84000015258789" style="stroke-width: 1.07; stroke-linecap: butt; fill: #3B528B; fill-opacity: 0.60;"/>
    <polygon points="87.30,125.87 53.09,118.14 58.77,90.48 95.67,105.41 " style="stroke-width: 1.07; stroke-linecap: butt; fill: #FDE725; fill-opacity: 0.60;"/>
    <polygon points="-28.26,135.25 -38.07,132.71 -22.60,98.08 -21.42,118.41 " style="stroke-width: 1.07; stroke-linecap: butt; fill: #3B528B; fill-opacity: 0.60;"/>
    <polygon points="-21.42,118.41 -22.60,98.08 -10.82,90.30 " style="stroke-width: 1.07; stroke-linecap: butt; fill: #440154; fill-opacity: 0.60;"/>
    <polygon points="-59.64,166.13 -38.07,132.71 -28.26,135.25 " style="stroke-width: 1.07; stroke-linecap: butt; fill: #440154; fill-opacity: 0.60;"/>
    <polygon points="105.04,117.12 87.30,125.87 66.34,107.33 76.97,98.74 95.67,105.41 " style="stroke-width: 1.07; stroke-linecap: butt; fill: #5DC863; fill-opacity: 0.60;"/>
    <circle cx="110.24" cy="57.89" r="1.10" style="stroke-width: 0.71; fill: #440154;"/>
    <circle cx="-11.15" cy="31.76" r="1.10" style="stroke-width: 0.71; fill: #440154;"/>
    <circle cx="9.35" cy="75.97" r="1.10" style="stroke-width: 0.71; fill: #440154;"/>
    <circle cx="47.95" cy="80.46" r="1.10" style="stroke-width: 0.71; fill: #440154;"/>
    <circle cx="110.56" cy="90.55" r="1.10" style="stroke-width: 0.71; fill: #440154;"/>
    <circle cx="119.46" cy="41.50" r="1.10" style="stroke-width: 0.71; fill: #440154;"/>
    <circle cx="64.87" cy="49.11" r="1.10" style="stroke-width: 0.71; fill: #440154;"/>
    <circle cx="58.77" cy="90.48" r="1.10" style="stroke-width: 0.71; fill: #440154;"/>
    <circle cx="-22.60" cy="98.08" r="1.10" style="stroke-width: 0.71; fill: #440154;"/>
    <circle cx="85.84" cy="121.51" r="1.10" style="stroke-width: 0.71; fill: #440154;"/>
    <circle cx="33.50" cy="82.59" r="1.10" style="stroke-width: 0.71; fill: #440154;"/>
    <circle cx="75.80" cy="55.02" r="1.10" style="stroke-width: 0.71; fill: #440154;"/>
    <circle cx="87.30" cy="125.87" r="1.10" style="stroke-width: 0.71; fill: #440154;"/>
    <circle cx="117.55" cy="94.05" r="1.10" style="stroke-width: 0.71; fill: #440154;"/>
    <circle cx="-21.42" cy="118.41" r="1.10" style="stroke-width: 0.71; fill: #440154;"/>
    <circle cx="63.11" cy="57.16" r="1.10" style="stroke-width: 0.71; fill: #440154;"/>
    <circle cx="-10.82" cy="90.30" r="1.10" style="stroke-width: 0.71; fill: #440154;"/>
    <circle cx="12.23" cy="36.943" r="1.1" style="stroke-width: 0.71; fill: #440154;"/>
    <circle cx="-59.64" cy="166.13" r="1.10" style="stroke-width: 0.71; fill: #440154;"/>
    <circle cx="105.04" cy="117.12" r="1.10" style="stroke-width: 0.71; fill: #440154;"/>
    <circle cx="30.50" cy="115.66" r="1.10" style="stroke-width: 0.71; fill: #440154;"/>
    <circle cx="53.09" cy="118.14" r="1.10" style="stroke-width: 0.71; fill: #440154;"/>
    <circle cx="32.70" cy="90.72" r="1.10" style="stroke-width: 0.71; fill: #440154;"/>
    <circle cx="66.34" cy="107.33" r="1.10" style="stroke-width: 0.71; fill: #440154;"/>
    <circle cx="90.53" cy="32.84" r="1.10" style="stroke-width: 0.71; fill: #440154;"/>
    <circle cx="76.97" cy="98.74" r="1.10" style="stroke-width: 0.71; fill: #440154;"/>
    <circle cx="16.88" cy="45.30" r="1.10" style="stroke-width: 0.71; fill: #440154;"/>
    <circle cx="95.67" cy="105.41" r="1.10" style="stroke-width: 0.71; fill: #440154;"/>
    <polygon points="1.303 107.126 1.555 36.635 62.355 1.537 123.038 36.751 123.222 107.173 62.563 142.165" style="stroke-width: 1.07; stroke: none; fill: rgb(0, 0, 0); fill-opacity: 0.2;"/>
    <path d="M 27.06 61.79 L 19.08 61.79 L 19.08 88.84 L 15.26 88.84 L 15.26 61.79 L 7.30 61.79 L 7.30 58.50 L 27.06 58.50 L 27.06 61.79 Z" style="fill-rule: nonzero; fill: #FFFFFF; stroke-width: 0.75; stroke: none;"/>
    <path d="M 31.54 88.84 L 31.54 58.50 L 38.77 58.50 L 38.77 58.50 L 39.81 58.54 L 40.80 58.64 L 41.75 58.80 L 42.64 59.04 L 43.49 59.34 L 44.29 59.70 L 45.05 60.14 L 45.75 60.64 L 46.41 61.20 L 47.02 61.84 L 47.02 61.84 L 47.58 62.53 L 48.08 63.27 L 48.52 64.07 L 48.90 64.92 L 49.23 65.83 L 49.49 66.79 L 49.70 67.80 L 49.84 68.87 L 49.93 69.99 L 49.96 71.17 L 49.96 76.26 L 49.96 76.26 L 49.93 77.43 L 49.84 78.56 L 49.69 79.62 L 49.48 80.64 L 49.22 81.60 L 48.89 82.50 L 48.50 83.35 L 48.05 84.15 L 47.55 84.89 L 46.98 85.57 L 46.98 85.57 L 46.36 86.19 L 45.68 86.75 L 44.95 87.24 L 44.17 87.67 L 43.33 88.03 L 42.44 88.32 L 41.49 88.55 L 40.49 88.71 L 39.44 88.81 L 38.33 88.84 L 31.54 88.84 ZM 35.35 61.79 L 35.35 85.57 L 38.42 85.57 L 38.42 85.57 L 39.20 85.55 L 39.94 85.48 L 40.63 85.37 L 41.29 85.21 L 41.90 85.00 L 42.46 84.75 L 42.99 84.45 L 43.46 84.11 L 43.90 83.72 L 44.29 83.28 L 44.29 83.28 L 44.65 82.80 L 44.96 82.27 L 45.24 81.69 L 45.49 81.08 L 45.69 80.41 L 45.87 79.71 L 46.00 78.96 L 46.10 78.16 L 46.16 77.33 L 46.19 76.44 L 46.19 71.07 L 46.19 71.07 L 46.17 70.13 L 46.12 69.25 L 46.02 68.42 L 45.89 67.64 L 45.73 66.92 L 45.52 66.24 L 45.28 65.61 L 45.00 65.04 L 44.69 64.52 L 44.34 64.04 L 44.34 64.04 L 43.95 63.62 L 43.53 63.23 L 43.06 62.90 L 42.56 62.60 L 42.03 62.36 L 41.45 62.15 L 40.84 62.00 L 40.19 61.88 L 39.50 61.82 L 38.77 61.79 L 35.35 61.79 Z" style="fill-rule: nonzero; fill: rgb(255, 255, 255); stroke-width: 0.75; stroke: none;"/>
    <path d="M 70.05 80.92 L 59.80 80.92 L 57.44 88.84 L 53.53 88.84 L 63.30 58.50 L 66.57 58.50 L 76.37 88.84 L 72.45 88.84 L 70.05 80.92 ZM 60.80 77.63 L 69.07 77.63 L 64.92 63.84 L 60.80 77.63 Z" style="fill-rule: nonzero; fill: #FFFFFF; stroke-width: 0.75; stroke: none;"/>
    <path d="M 80.90 83.24 L 85.17 66.30 L 88.92 66.30 L 82.23 88.84 L 79.48 88.84 L 72.71 66.30 L 76.46 66.30 L 80.90 83.24 Z" style="fill-rule: nonzero; stroke-width: 0.75; stroke: none; fill: rgb(208, 0, 121);"/>
    <path d="M 96.74 88.84 L 93.05 88.84 L 93.05 66.30 L 96.74 66.30 L 96.74 88.84 ZM 97.03 60.31 L 97.03 60.31 L 97.02 60.50 L 97.01 60.68 L 96.98 60.85 L 96.94 61.01 L 96.90 61.17 L 96.84 61.33 L 96.77 61.47 L 96.69 61.62 L 96.61 61.75 L 96.51 61.88 L 96.51 61.88 L 96.40 62.00 L 96.28 62.10 L 96.15 62.20 L 96.00 62.28 L 95.85 62.35 L 95.69 62.40 L 95.51 62.45 L 95.33 62.48 L 95.13 62.50 L 94.92 62.50 L 94.92 62.50 L 94.72 62.50 L 94.53 62.48 L 94.34 62.45 L 94.17 62.40 L 94.01 62.35 L 93.86 62.28 L 93.72 62.20 L 93.59 62.10 L 93.47 62.00 L 93.36 61.88 L 93.36 61.88 L 93.26 61.75 L 93.17 61.62 L 93.09 61.47 L 93.03 61.33 L 92.97 61.17 L 92.92 61.01 L 92.89 60.85 L 92.86 60.68 L 92.84 60.50 L 92.84 60.31 L 92.84 60.31 L 92.84 60.13 L 92.86 59.95 L 92.89 59.78 L 92.92 59.61 L 92.97 59.45 L 93.03 59.29 L 93.09 59.14 L 93.17 59.00 L 93.26 58.86 L 93.36 58.73 L 93.36 58.73 L 93.47 58.61 L 93.59 58.50 L 93.72 58.40 L 93.86 58.32 L 94.01 58.25 L 94.17 58.19 L 94.34 58.14 L 94.53 58.11 L 94.72 58.09 L 94.92 58.08 L 94.92 58.08 L 95.13 58.09 L 95.32 58.11 L 95.50 58.14 L 95.67 58.19 L 95.83 58.25 L 95.99 58.32 L 96.13 58.41 L 96.26 58.51 L 96.38 58.63 L 96.49 58.75 L 96.49 58.75 L 96.59 58.88 L 96.68 59.02 L 96.76 59.16 L 96.83 59.31 L 96.89 59.47 L 96.94 59.62 L 96.98 59.79 L 97.01 59.96 L 97.02 60.13 L 97.03 60.31 Z" style="fill-rule: nonzero; stroke-width: 0.75; stroke: none; fill: rgb(208, 0, 121);"/>
    <path d="M 113.49 83.07 L 113.49 83.07 L 113.48 82.84 L 113.45 82.61 L 113.41 82.39 L 113.35 82.17 L 113.27 81.97 L 113.17 81.77 L 113.05 81.57 L 112.92 81.38 L 112.76 81.20 L 112.59 81.03 L 112.59 81.03 L 112.40 80.86 L 112.17 80.68 L 111.91 80.49 L 111.61 80.30 L 111.28 80.10 L 110.92 79.90 L 110.52 79.69 L 110.09 79.48 L 109.63 79.25 L 109.14 79.03 L 109.14 79.03 L 108.56 78.79 L 108.01 78.55 L 107.50 78.32 L 107.03 78.10 L 106.59 77.89 L 106.19 77.68 L 105.82 77.48 L 105.49 77.29 L 105.19 77.10 L 104.93 76.92 L 104.93 76.92 L 104.69 76.75 L 104.47 76.56 L 104.25 76.38 L 104.06 76.19 L 103.87 75.99 L 103.69 75.79 L 103.53 75.59 L 103.38 75.38 L 103.24 75.16 L 103.11 74.94 L 103.11 74.94 L 103.00 74.71 L 102.90 74.48 L 102.80 74.23 L 102.73 73.98 L 102.66 73.71 L 102.61 73.44 L 102.56 73.16 L 102.53 72.88 L 102.51 72.58 L 102.51 72.28 L 102.51 72.28 L 102.53 71.74 L 102.59 71.21 L 102.69 70.71 L 102.83 70.23 L 103.01 69.76 L 103.23 69.31 L 103.49 68.88 L 103.79 68.48 L 104.13 68.08 L 104.51 67.71 L 104.51 67.71 L 104.92 67.36 L 105.36 67.05 L 105.82 66.78 L 106.30 66.54 L 106.81 66.34 L 107.33 66.17 L 107.88 66.04 L 108.45 65.95 L 109.04 65.90 L 109.66 65.88 L 109.66 65.88 L 110.30 65.90 L 110.92 65.96 L 111.52 66.05 L 112.08 66.19 L 112.63 66.36 L 113.14 66.57 L 113.63 66.82 L 114.10 67.11 L 114.54 67.43 L 114.95 67.80 L 114.95 67.80 L 115.33 68.19 L 115.67 68.61 L 115.97 69.04 L 116.23 69.50 L 116.45 69.98 L 116.63 70.49 L 116.77 71.01 L 116.87 71.56 L 116.93 72.12 L 116.95 72.71 L 113.28 72.71 L 113.28 72.71 L 113.27 72.41 L 113.24 72.12 L 113.19 71.84 L 113.12 71.57 L 113.03 71.31 L 112.91 71.05 L 112.78 70.81 L 112.63 70.57 L 112.46 70.35 L 112.26 70.13 L 112.26 70.13 L 112.05 69.92 L 111.83 69.74 L 111.60 69.58 L 111.35 69.44 L 111.10 69.32 L 110.83 69.22 L 110.56 69.14 L 110.27 69.09 L 109.97 69.06 L 109.66 69.05 L 109.66 69.05 L 109.34 69.05 L 109.03 69.08 L 108.74 69.12 L 108.47 69.18 L 108.20 69.26 L 107.95 69.35 L 107.72 69.47 L 107.50 69.59 L 107.29 69.74 L 107.09 69.90 L 107.09 69.90 L 106.92 70.07 L 106.76 70.26 L 106.63 70.45 L 106.51 70.66 L 106.41 70.88 L 106.32 71.11 L 106.26 71.35 L 106.21 71.61 L 106.19 71.87 L 106.18 72.15 L 106.18 72.15 L 106.18 72.37 L 106.20 72.58 L 106.24 72.79 L 106.28 72.98 L 106.34 73.17 L 106.42 73.34 L 106.50 73.51 L 106.60 73.67 L 106.72 73.82 L 106.84 73.96 L 106.84 73.96 L 107.00 74.11 L 107.19 74.26 L 107.43 74.42 L 107.70 74.58 L 108.00 74.76 L 108.35 74.95 L 108.73 75.14 L 109.16 75.34 L 109.62 75.56 L 110.11 75.78 L 110.11 75.78 L 110.91 76.10 L 111.65 76.42 L 112.34 76.73 L 112.98 77.05 L 113.56 77.37 L 114.10 77.68 L 114.58 77.99 L 115.00 78.30 L 115.38 78.62 L 115.70 78.92 L 115.70 78.92 L 115.98 79.24 L 116.23 79.57 L 116.45 79.91 L 116.65 80.27 L 116.81 80.65 L 116.94 81.05 L 117.05 81.46 L 117.12 81.89 L 117.16 82.34 L 117.18 82.80 L 117.18 82.80 L 117.16 83.38 L 117.10 83.93 L 117.00 84.46 L 116.86 84.96 L 116.67 85.45 L 116.45 85.91 L 116.19 86.34 L 115.89 86.75 L 115.54 87.14 L 115.16 87.51 L 115.16 87.51 L 114.74 87.84 L 114.29 88.14 L 113.82 88.40 L 113.32 88.63 L 112.79 88.82 L 112.24 88.98 L 111.65 89.10 L 111.04 89.19 L 110.41 89.24 L 109.74 89.26 L 109.74 89.26 L 109.05 89.24 L 108.38 89.18 L 107.75 89.08 L 107.14 88.94 L 106.55 88.76 L 105.99 88.53 L 105.46 88.27 L 104.96 87.97 L 104.48 87.62 L 104.03 87.24 L 104.03 87.24 L 103.61 86.82 L 103.24 86.39 L 102.91 85.93 L 102.63 85.45 L 102.39 84.95 L 102.19 84.42 L 102.04 83.88 L 101.93 83.31 L 101.86 82.72 L 101.84 82.11 L 105.55 82.11 L 105.55 82.11 L 105.57 82.48 L 105.62 82.83 L 105.68 83.16 L 105.76 83.48 L 105.87 83.79 L 105.99 84.07 L 106.14 84.34 L 106.30 84.59 L 106.49 84.83 L 106.70 85.05 L 106.70 85.05 L 106.92 85.25 L 107.17 85.43 L 107.43 85.59 L 107.70 85.73 L 108.00 85.85 L 108.31 85.94 L 108.64 86.02 L 108.99 86.07 L 109.36 86.10 L 109.74 86.11 L 109.74 86.11 L 110.10 86.11 L 110.44 86.08 L 110.76 86.04 L 111.07 85.98 L 111.35 85.91 L 111.63 85.82 L 111.88 85.72 L 112.11 85.59 L 112.33 85.46 L 112.53 85.30 L 112.53 85.30 L 112.71 85.13 L 112.88 84.95 L 113.02 84.75 L 113.15 84.54 L 113.25 84.33 L 113.34 84.10 L 113.40 83.86 L 113.45 83.61 L 113.48 83.34 L 113.49 83.07 Z" style="fill-rule: nonzero; stroke-width: 0.75; stroke: none; fill: rgb(208, 0, 121);"/>
  </g>
  <g clip-path="url(#cpMC4wMHwxMjQuNDR8MC4xNHwxNDQuMDA=)"/>
  <g clip-path="url(#cpMC4wMHwxMjQuNDR8MC4wMHwxNDQuMDA=)"/>
  <g clip-path="url(#cpMC4wMHwxMjQuNDR8MC4xNHwxNDQuMDA=)"/>
  <g clip-path="url(#cpMC4wMHwxMjQuNDR8MC4wMHwxNDQuMDA=)"/>
  <g clip-path="url(#cpMC4wMHwxMjQuNDR8MC4xNHwxNDQuMDA=)"/>
  <g clip-path="url(#cpMC4wMHwxMjQuNDR8MC4wMHwxNDQuMDA=)"/>
  <g clip-path="url(#cpMC4wMHwxMjQuNDR8MC4xNHwxNDQuMDA=)"/>
  <g clip-path="url(#cpMC4wMHwxMjQuNDR8MC4wMHwxNDQuMDA=)"/>
  <g clip-path="url(#cpMC4wMHwxMjQuNDR8MC4xNHwxNDQuMDA=)"/>
  <g clip-path="url(#cpMC4wMHwxMjQuNDR8MC4wMHwxNDQuMDA=)"/>
  <g clip-path="url(#cpMC4wMHwxMjQuNDR8MC4xNHwxNDQuMDA=)"/>
  <g clip-path="url(#cpMC4wMHwxMjQuNDR8MC4wMHwxNDQuMDA=)"/>
  <g clip-path="url(#cpMC4wMHwxMjQuNDR8MC4xNHwxNDQuMDA=)"/>
  <g clip-path="url(#cpMC4wMHwxMjQuNDR8MC4wMHwxNDQuMDA=)"/>
  <g clip-path="url(#cpMC4wMHwxMjQuNDR8MC4xNHwxNDQuMDA=)"/>
  <g clip-path="url(#cpMC4wMHwxMjQuNDR8MC4wMHwxNDQuMDA=)"/>
  <g clip-path="url(#cpMC4wMHwxMjQuNDR8MC4xNHwxNDQuMDA=)"/>
  <g clip-path="url(#cpMC4wMHwxMjQuNDR8MC4wMHwxNDQuMDA=)"/>
  <g clip-path="url(#cpMC4wMHwxMjQuNDR8MC4xNHwxNDQuMDA=)"/>
  <g clip-path="url(#cpMC4wMHwxMjQuNDR8MC4wMHwxNDQuMDA=)"/>
  <g clip-path="url(#cpMC4wMHwxMjQuNDR8MC4xNHwxNDQuMDA=)"/>
  <g clip-path="url(#cpMC4wMHwxMjQuNDR8MC4wMHwxNDQuMDA=)"/>
  <g clip-path="url(#cpMC4wMHwxMjQuNDR8MC4xNHwxNDQuMDA=)"/>
  <g clip-path="url(#cpMC4wMHwxMjQuNDR8MC4wMHwxNDQuMDA=)"/>
  <g clip-path="url(#cpMC4wMHwxMjQuNDR8MC4xNHwxNDQuMDA=)"/>
  <g clip-path="url(#cpMC4wMHwxMjQuNDR8MC4wMHwxNDQuMDA=)"/>
  <g clip-path="url(#cpMC4wMHwxMjQuNDR8MC4xNHwxNDQuMDA=)"/>
  <g clip-path="url(#cpMC4wMHwxMjQuNDR8MC4wMHwxNDQuMDA=)"/>
  <g clip-path="url(#cpMC4wMHwxMjQuNDR8MC4xNHwxNDQuMDA=)"/>
  <g clip-path="url(#cpMC4wMHwxMjQuNDR8MC4wMHwxNDQuMDA=)"/>
  <g clip-path="url(#cpMC4wMHwxMjQuNDR8MC4xNHwxNDQuMDA=)"/>
  <g clip-path="url(#cpMC4wMHwxMjQuNDR8MC4wMHwxNDQuMDA=)"/>
  <g clip-path="url(#cpMC4wMHwxMjQuNDR8MC4xNHwxNDQuMDA=)">
    <polygon points="2.281 37.752 2.384 106.582 62.076 141.131 121.988 106.561 121.867 37.524 62.228 2.957" style="stroke: rgb(255, 255, 255);"/>
    <polygon points="1.08,36.81 1.08,107.33 62.15,142.59 123.22,107.33 123.22,36.81 62.15,1.55 1.08,36.81 " style="stroke-width: 2.13;"/>
  </g>
  <g clip-path="url(#cpMC4wMHwxMjQuNDR8MC4wMHwxNDQuMDA=)"/>
</svg>