<?xml version="1.0" encoding="utf-8"?>
<svg class="svglite" width="124.44pt" height="144.00pt" viewBox="0 0 124.44 144.00" xmlns="http://www.w3.org/2000/svg">
  <defs>
    <style type="text/css">
    .svglite line, .svglite polyline, .svglite polygon, .svglite path, .svglite rect, .svglite circle {
      fill: none;
      stroke: #000000;
      stroke-linecap: round;
      stroke-linejoin: round;
      stroke-miterlimit: 10.00;
    }
    .svglite text {
      white-space: pre;
    }
  </style>
  </defs>
  <rect width="100%" height="100%" style="stroke: none; fill: none;"/>
  <defs>
    <clipPath id="cpMC4wMHwxMjQuNDR8MC4wMHwxNDQuMDA=">
      <rect x="0.00" y="0.00" width="124.44" height="144.00"/>
    </clipPath>
  </defs>
  <g clip-path="url(#cpMC4wMHwxMjQuNDR8MC4wMHwxNDQuMDA=)"/>
  <defs>
    <clipPath id="cpMC4wMHwxMjQuNDR8MC4xNHwxNDMuODY=">
      <rect x="0.00" y="0.14" width="124.44" height="143.71"/>
    </clipPath>
  </defs>
  <g clip-path="url(#cpMC4wMHwxMjQuNDR8MC4xNHwxNDMuODY=)">
    <rect x="0.00" y="0.14" width="124.44" height="143.71" style="stroke-width: 1.07; stroke: none;"/>
  </g>
  <g clip-path="url(#cpMC4wMHwxMjQuNDR8MC4wMHwxNDQuMDA=)"/>
  <defs>
    <clipPath id="cpMC4wMHwxMjQuNDR8MC4xNHwxNDQuMDA=">
      <rect x="0.00" y="0.14" width="124.44" height="143.85"/>
    </clipPath>
  </defs>
  <g clip-path="url(#cpMC4wMHwxMjQuNDR8MC4xNHwxNDQuMDA=)">
    <rect x="-0.14" y="0.14" width="124.58" height="143.85" style="stroke-width: 1.07; stroke: none;"/>
    <polygon points="1.08,36.81 1.08,107.33 62.15,142.59 123.22,107.33 123.22,36.81 62.15,1.55 1.08,36.81 " style="stroke-width: 4.27; stroke: none; fill: #EBC8D5;"/>
  </g>
  <g clip-path="url(#cpMC4wMHwxMjQuNDR8MC4wMHwxNDQuMDA=)">
    <rect x="-18.90" y="-12.55" width="162.09" height="169.24" style="stroke-width: 0.75; stroke: none;"/>
  </g>
  <g clip-path="url(#cpMC4wMHwxMjQuNDR8MC4xNHwxNDQuMDA=)"/>
  <g clip-path="url(#cpMC4wMHwxMjQuNDR8MC4wMHwxNDQuMDA=)">
    <rect x="-18.90" y="-12.55" width="162.09" height="169.24" style="stroke-width: 0.75; stroke: none;"/>
    <polygon points="120.79,101.46 106.15,103.02 103.61,96.67 113.67,88.34 125.65,88.64 127.86,90.92 " style="stroke-width: 1.07; stroke-linecap: butt; fill: #7AD151; fill-opacity: 0.60;"/>
    <polygon points="123.372 81.825 120.79 101.46 103.61 96.67 116.01 76.65 119.78 79.61" style="stroke-width: 1.07; stroke-linecap: butt; fill: #FDE725; fill-opacity: 0.60;"/>
    <polygon points="123.13 95.44 120.39 97.26 113.67 88.34 116.01 76.65 117.21 73.66 123.25 72.61" style="stroke-width: 1.07; stroke-linecap: butt; fill: #FDE725; fill-opacity: 0.60;"/>
    <polygon points="135.83,54.12 121.08,62.55 112.64,48.13 120.97,41.02 " style="stroke-width: 1.07; stroke-linecap: butt; fill: #22A884; fill-opacity: 0.60;"/>
    <polygon points="123.25,72.61 121.08,62.55 121.16,55.51 135.83,54.12 " style="stroke-width: 1.07; stroke-linecap: butt; fill: #2A788E; fill-opacity: 0.60;"/>
    <polygon points="134.63,54.67 121.08,62.55 110.96,45.87 120.97,41.02 " style="stroke-width: 1.07; stroke-linecap: butt; fill: #22A884; fill-opacity: 0.60;"/>
    <polygon points="121.16,55.51 121.08,62.55 109.49,60.91 109.24,55.04 110.96,45.87 112.77,41.26 120.97,41.02 " style="stroke-width: 1.07; stroke-linecap: butt; fill: #FDE725; fill-opacity: 0.60;"/>
    <polygon points="123.25,72.61 116.01,76.65 109.49,60.91 109.24,55.04 121.16,55.51 " style="stroke-width: 1.07; stroke-linecap: butt; fill: #7AD151; fill-opacity: 0.60;"/>
    <polygon points="123.25,72.61 119.78,79.61 116.01,76.65 109.49,60.91 121.16,55.51 " style="stroke-width: 1.07; stroke-linecap: butt; fill: #7AD151; fill-opacity: 0.60;"/>
    <polygon points="120.97 41.02 112.64 48.13 110.96 45.87 112.246 30.967 117.243 33.456" style="stroke-width: 1.07; stroke-linecap: butt; fill: #2A788E; fill-opacity: 0.60;"/>
    <polygon points="112.77 41.26 88.194 33.579 99.285 22.726 112.383 30.53" style="stroke-width: 1.07; stroke-linecap: butt; fill: #440154; fill-opacity: 0.60;"/>
    <polygon points="99.83999633789062 21.719999313354492 83.36000061035156 19.719999313354492 78.55999755859375 12.350000381469727" style="stroke-width: 1.07; stroke-linecap: butt; fill: #7AD151; fill-opacity: 0.60;"/>
    <polygon points="99.216 22.767 88.15 33.21 86.12 30.5 78.56 12.35" style="stroke-width: 1.07; stroke-linecap: butt; fill: #FDE725; fill-opacity: 0.60;"/>
    <polygon points="88.15 33.21 72.18 22.23 78.56 12.35 90.774 18.057" style="stroke-width: 1.07; stroke-linecap: butt; fill: #7AD151; fill-opacity: 0.60;"/>
    <polygon points="83.36 19.72 72.18 22.23 77.235 10.95 87.566 15.709" style="stroke-width: 1.07; stroke-linecap: butt; fill: #22A884; fill-opacity: 0.60;"/>
    <polygon points="85.737 14.835 83.36 19.72 66.92 10.27 67.62 9.37" style="stroke-width: 1.07; stroke-linecap: butt; fill: #7AD151; fill-opacity: 0.60;"/>
    <polygon points="83.36 19.72 72.18 22.23 66.92 10.27 67.62 9.37 71.316 7.183 85.291 15.129" style="stroke-width: 1.07; stroke-linecap: butt; fill: #7AD151; fill-opacity: 0.60;"/>
    <polygon points="78.56 12.35 66.92 10.27 65.429 3.446" style="stroke-width: 1.07; stroke-linecap: butt; fill: #7AD151; fill-opacity: 0.60;"/>
    <polygon points="72.18,22.23 51.42,24.60 67.62,9.37 " style="stroke-width: 1.07; stroke-linecap: butt; fill: #414487; fill-opacity: 0.60;"/>
    <polygon points="67.62 9.37 67.347 9.178 57.439 4.683 62.416 2.211 68.585 5.65" style="stroke-width: 1.07; stroke-linecap: butt; fill: #2A788E; fill-opacity: 0.60;"/>
    <polygon points="51.41999816894531 24.600000381469727 54.49300003051758 6.440000057220459 57.41699981689453 4.256999969482422 67.62000274658203 9.369999885559082 66.91999816894531 10.270000457763672" style="stroke-width: 1.07; stroke-linecap: butt; fill: #414487; fill-opacity: 0.60;"/>
    <polygon points="39.32 20.56 38.43 15.72 54.301 6.146" style="stroke-width: 1.07; stroke-linecap: butt; fill: #2A788E; fill-opacity: 0.60;"/>
    <polygon points="51.42 24.6 39.32 20.56 38.43 15.72 54.7 6.04" style="stroke-width: 1.07; stroke-linecap: butt; fill: #2A788E; fill-opacity: 0.60;"/>
    <polygon points="51.42 24.6 44.59 29.92 33.57 22.22 32.805 19.094 41.213 14.014" style="stroke-width: 1.07; stroke-linecap: butt; fill: #7AD151; fill-opacity: 0.60;"/>
    <polygon points="39.32 20.56 33.983 17.838 39.45 14.582" style="stroke-width: 1.07; stroke-linecap: butt; fill: #2A788E; fill-opacity: 0.60;"/>
    <polygon points="18.579999923706055 35.040000915527344 24.915000915527344 23.16900062561035 33.56999969482422 22.219999313354492" style="stroke-width: 1.07; stroke-linecap: butt; fill: #440154; fill-opacity: 0.60;"/>
    <polygon points="21.14,41.16 18.58,35.04 33.57,22.22 " style="stroke-width: 1.07; stroke-linecap: butt; fill: #440154; fill-opacity: 0.60;"/>
    <polygon points="18.579999923706055 35.040000915527344 11.920000076293945 30.405000686645508 23.96299934387207 23.29400062561035" style="stroke-width: 1.07; stroke-linecap: butt; fill: #414487; fill-opacity: 0.60;"/>
    <polygon points="18.579999923706055 35.040000915527344 1.9550001621246338 36.71200180053711 14.343000411987305 28.89699935913086" style="stroke-width: 1.07; stroke-linecap: butt; fill: #22A884; fill-opacity: 0.60;"/>
    <polygon points="3.21,55.61 -11.53,54.57 -4.77,34.59 -3.31,37.27 " style="stroke-width: 1.07; stroke-linecap: butt; fill: #2A788E; fill-opacity: 0.60;"/>
    <polygon points="21.14 41.16 1.689 37.961 12.613 30.379 18.58 35.04" style="stroke-width: 1.07; stroke-linecap: butt; fill: #414487; fill-opacity: 0.60;"/>
    <polygon points="3.21 55.61 1.133 37.944 21.14 41.16" style="stroke-width: 1.07; stroke-linecap: butt; fill: #440154; fill-opacity: 0.60;"/>
    <polygon points="9.22,62.48 3.21,55.61 21.14,41.16 " style="stroke-width: 1.07; stroke-linecap: butt; fill: #440154; fill-opacity: 0.60;"/>
    <polygon points="3.21,55.61 -8.24,61.63 -11.53,54.57 -3.31,37.27 " style="stroke-width: 1.07; stroke-linecap: butt; fill: #2A788E; fill-opacity: 0.60;"/>
    <polygon points="9.220000267028809 62.47999954223633 1.0379999876022339 66.52799987792969 3.2100000381469727 55.61000061035156" style="stroke-width: 1.07; stroke-linecap: butt; fill: #FDE725; fill-opacity: 0.60;"/>
    <polygon points="1.4110000133514404 67.57499694824219 1.3489999771118164 59.2859992980957 9.220000267028809 62.47999954223633" style="stroke-width: 1.07; stroke-linecap: butt; fill: #7AD151; fill-opacity: 0.60;"/>
    <polygon points="5.8 84.32 1.676 82.218 1.209 66.248 9.22 62.48" style="stroke-width: 1.07; stroke-linecap: butt; fill: #22A884; fill-opacity: 0.60;"/>
    <polygon points="5.800000190734863 84.31999969482422 1.1380000114440918 89.18099975585938 1.059000015258789 77.30599975585938" style="stroke-width: 1.07; stroke-linecap: butt; fill: #FDE725; fill-opacity: 0.60;"/>
    <polygon points="8.67 103.49 3.69 106.08 1.032 100.892 1.28 87.04 5.8 84.32 19.51 90.27" style="stroke-width: 1.07; stroke-linecap: butt; fill: #7AD151; fill-opacity: 0.60;"/>
    <polygon points="21.82,101.75 3.69,106.08 5.80,84.32 19.51,90.27 " style="stroke-width: 1.07; stroke-linecap: butt; fill: #22A884; fill-opacity: 0.60;"/>
    <polygon points="8.67 103.49 9.449 112.162 3.69 106.08 1.388 95.596 7.76 97.96" style="stroke-width: 1.07; stroke-linecap: butt; fill: #2A788E; fill-opacity: 0.60;"/>
    <polygon points="8.70,113.56 3.69,106.08 7.76,97.96 21.82,101.75 " style="stroke-width: 1.07; stroke-linecap: butt; fill: #2A788E; fill-opacity: 0.60;"/>
    <polygon points="16.153 115.694 6.593 110.624 3.69 106.08 8.67 103.49 21.82 101.75" style="stroke-width: 1.07; stroke-linecap: butt; fill: #2A788E; fill-opacity: 0.60;"/>
    <polygon points="10.387 112.746 5.56 109.862 3.69 106.08 8.67 103.49" style="stroke-width: 1.07; stroke-linecap: butt; fill: #2A788E; fill-opacity: 0.60;"/>
    <polygon points="35.26100158691406 119.18099975585938 28.229000091552734 123.44100189208984 13.572999954223633 114.62200164794922 22.035999298095703 101.90799713134766" style="stroke-width: 1.07; stroke-linecap: butt; fill: #22A884; fill-opacity: 0.60;"/>
    <polygon points="29.041000366210938 123.36100006103516 35.117000579833984 118.99600219726562 43.334999084472656 125.36100006103516 43.51100158691406 131.2209930419922" style="stroke-width: 1.07; stroke-linecap: butt; fill: #22A884; fill-opacity: 0.60;"/>
    <polygon points="57.815 140.151 43.184 131.55 43.41 129.89 60.01 129.38 61.4 132.92" style="stroke-width: 1.07; stroke-linecap: butt; fill: #22A884; fill-opacity: 0.60;"/>
    <polygon points="57.358001708984375 139.31900024414062 43.40999984741211 129.88999938964844 60.0099983215332 129.3800048828125" style="stroke-width: 1.07; stroke-linecap: butt; fill: #22A884; fill-opacity: 0.60;"/>
    <polygon points="58.798 140.762 43.56 129.454 43.281 125.097 60.01 129.38 68.21 133.36" style="stroke-width: 1.07; stroke-linecap: butt; fill: #22A884; fill-opacity: 0.60;"/>
    <polygon points="71.557 136.934 62.212 142.542 55.565 138.964 60.01 129.38 68.21 133.36 71.9 135.38" style="stroke-width: 1.07; stroke-linecap: butt; fill: #7AD151; fill-opacity: 0.60;"/>
    <polygon points="72.14 136.699 67.865 138.981 61.4 132.92 60.01 129.38 74.7 117.31 75.16 122.13" style="stroke-width: 1.07; stroke-linecap: butt; fill: #7AD151; fill-opacity: 0.60;"/>
    <polygon points="71.90,135.38 74.70,117.31 91.58,121.08 " style="stroke-width: 1.07; stroke-linecap: butt; fill: #414487; fill-opacity: 0.60;"/>
    <polygon points="97.55,118.00 91.58,121.08 75.16,122.13 74.70,117.31 85.74,107.77 99.71,116.66 " style="stroke-width: 1.07; stroke-linecap: butt; fill: #7AD151; fill-opacity: 0.60;"/>
    <polygon points="104.40,117.95 91.58,121.08 85.74,107.77 106.15,103.02 " style="stroke-width: 1.07; stroke-linecap: butt; fill: #7AD151; fill-opacity: 0.60;"/>
    <polygon points="104.40,117.95 97.55,118.00 91.55,113.87 85.74,107.77 103.61,96.67 106.15,103.02 " style="stroke-width: 1.07; stroke-linecap: butt; fill: #7AD151; fill-opacity: 0.60;"/>
    <polygon points="94.06500244140625 124.0250015258789 91.58000183105469 121.08000183105469 91.55000305175781 113.87000274658203 104.4000015258789 117.94999694824219" style="stroke-width: 1.07; stroke-linecap: butt; fill: #22A884; fill-opacity: 0.60;"/>
    <path style="stroke-width: 1.07; stroke-linecap: butt; fill: #414487; fill-opacity: 0.60;" d="M 116.162 111.232 L 104.4 117.95 L 99.71 116.66 L 106.15 103.02 L 116.162 111.232 Z"/>
    <polygon points="121.897 107.956 104.4 117.95 106.15 103.02 120.79 101.46" style="stroke-width: 1.07; stroke-linecap: butt; fill: #414487; fill-opacity: 0.60;"/>
    <polygon points="121.764 108.247 116.162 111.232 106.15 103.02 120.39 97.26" style="stroke-width: 1.07; stroke-linecap: butt; fill: #414487; fill-opacity: 0.60;"/>
    <polygon points="104.40,117.95 103.61,96.67 120.79,101.46 " style="stroke-width: 1.07; stroke-linecap: butt; fill: #414487; fill-opacity: 0.60;"/>
    <circle cx="113.67" cy="88.34" r="0.78" style="stroke-width: 0.71; fill: #440154;"/>
    <circle cx="134.63" cy="54.67" r="0.78" style="stroke-width: 0.71; fill: #440154;"/>
    <circle cx="109.24" cy="55.04" r="0.78" style="stroke-width: 0.71; fill: #440154;"/>
    <circle cx="121.16" cy="55.51" r="0.78" style="stroke-width: 0.71; fill: #440154;"/>
    <circle cx="135.83" cy="54.12" r="0.78" style="stroke-width: 0.71; fill: #440154;"/>
    <circle cx="112.77" cy="41.26" r="0.78" style="stroke-width: 0.71; fill: #440154;"/>
    <circle cx="112.64" cy="48.13" r="0.78" style="stroke-width: 0.71; fill: #440154;"/>
    <circle cx="109.49" cy="60.91" r="0.78" style="stroke-width: 0.71; fill: #440154;"/>
    <circle cx="110.96" cy="45.87" r="0.78" style="stroke-width: 0.71; fill: #440154;"/>
    <circle cx="120.97" cy="41.02" r="0.78" style="stroke-width: 0.71; fill: #440154;"/>
    <circle cx="88.15" cy="33.21" r="0.78" style="stroke-width: 0.71; fill: #440154;"/>
    <circle cx="86.12" cy="30.50" r="0.78" style="stroke-width: 0.71; fill: #440154;"/>
    <circle cx="67.62" cy="9.37" r="0.78" style="stroke-width: 0.71; fill: #440154;"/>
    <circle cx="78.56" cy="12.35" r="0.78" style="stroke-width: 0.71; fill: #440154;"/>
    <circle cx="83.36" cy="19.72" r="0.78" style="stroke-width: 0.71; fill: #440154;"/>
    <circle cx="72.18" cy="22.23" r="0.78" style="stroke-width: 0.71; fill: #440154;"/>
    <circle cx="66.92" cy="10.27" r="0.78" style="stroke-width: 0.71; fill: #440154;"/>
    <circle cx="39.32" cy="20.56" r="0.78" style="stroke-width: 0.71; fill: #440154;"/>
    <circle cx="33.57" cy="22.22" r="0.78" style="stroke-width: 0.71; fill: #440154;"/>
    <circle cx="44.59" cy="29.92" r="0.78" style="stroke-width: 0.71; fill: #440154;"/>
    <circle cx="51.42" cy="24.60" r="0.78" style="stroke-width: 0.71; fill: #440154;"/>
    <circle cx="38.43" cy="15.72" r="0.78" style="stroke-width: 0.71; fill: #440154;"/>
    <circle cx="21.14" cy="41.16" r="0.78" style="stroke-width: 0.71; fill: #440154;"/>
    <circle cx="18.58" cy="35.04" r="0.78" style="stroke-width: 0.71; fill: #440154;"/>
    <circle cx="3.21" cy="55.61" r="0.78" style="stroke-width: 0.71; fill: #440154;"/>
    <circle cx="9.22" cy="62.48" r="0.78" style="stroke-width: 0.71; fill: #440154;"/>
    <circle cx="5.80" cy="84.32" r="0.78" style="stroke-width: 0.71; fill: #440154;"/>
    <circle cx="7.76" cy="97.96" r="0.78" style="stroke-width: 0.71; fill: #440154;"/>
    <circle cx="1.28" cy="87.04" r="0.78" style="stroke-width: 0.71; fill: #440154;"/>
    <circle cx="3.69" cy="106.08" r="0.78" style="stroke-width: 0.71; fill: #440154;"/>
    <circle cx="8.67" cy="103.49" r="0.78" style="stroke-width: 0.71; fill: #440154;"/>
    <circle cx="19.51" cy="90.27" r="0.78" style="stroke-width: 0.71; fill: #440154;"/>
    <circle cx="21.82" cy="101.75" r="0.78" style="stroke-width: 0.71; fill: #440154;"/>
    <circle cx="43.41" cy="129.89" r="0.78" style="stroke-width: 0.71; fill: #440154;"/>
    <circle cx="61.40" cy="132.92" r="0.78" style="stroke-width: 0.71; fill: #440154;"/>
    <circle cx="60.01" cy="129.38" r="0.78" style="stroke-width: 0.71; fill: #440154;"/>
    <circle cx="74.70" cy="117.31" r="0.78" style="stroke-width: 0.71; fill: #440154;"/>
    <circle cx="75.16" cy="122.13" r="0.78" style="stroke-width: 0.71; fill: #440154;"/>
    <circle cx="71.90" cy="135.38" r="0.78" style="stroke-width: 0.71; fill: #440154;"/>
    <circle cx="85.74" cy="107.77" r="0.78" style="stroke-width: 0.71; fill: #440154;"/>
    <circle cx="68.21" cy="133.36" r="0.78" style="stroke-width: 0.71; fill: #440154;"/>
    <circle cx="97.55" cy="118.00" r="0.78" style="stroke-width: 0.71; fill: #440154;"/>
    <circle cx="91.55" cy="113.87" r="0.78" style="stroke-width: 0.71; fill: #440154;"/>
    <circle cx="91.58" cy="121.08" r="0.78" style="stroke-width: 0.71; fill: #440154;"/>
    <circle cx="99.71" cy="116.66" r="0.78" style="stroke-width: 0.71; fill: #440154;"/>
    <circle cx="106.15" cy="103.02" r="0.78" style="stroke-width: 0.71; fill: #440154;"/>
    <circle cx="104.40" cy="117.95" r="0.78" style="stroke-width: 0.71; fill: #440154;"/>
    <circle cx="120.39" cy="97.26" r="0.78" style="stroke-width: 0.71; fill: #440154;"/>
    <circle cx="103.61" cy="96.67" r="0.78" style="stroke-width: 0.71; fill: #440154;"/>
    <circle cx="120.79" cy="101.46" r="0.78" style="stroke-width: 0.71; fill: #440154;"/>
    <circle cx="125.65" cy="88.64" r="0.78" style="stroke-width: 0.71; fill: #440154;"/>
    <circle cx="127.86" cy="90.92" r="0.78" style="stroke-width: 0.71; fill: #440154;"/>
    <circle cx="123.25" cy="72.61" r="0.78" style="stroke-width: 0.71; fill: #440154;"/>
    <circle cx="116.01" cy="76.65" r="0.78" style="stroke-width: 0.71; fill: #440154;"/>
    <circle cx="119.78" cy="79.61" r="0.78" style="stroke-width: 0.71; fill: #440154;"/>
    <path d="M 28.16 59.14 L 21.25 59.14 L 21.25 82.58 L 17.94 82.58 L 17.94 59.14 L 11.04 59.14 L 11.04 56.29 L 28.16 56.29 L 28.16 59.14 Z" style="fill-rule: nonzero; fill: rgb(255, 255, 255); stroke-width: 0.75;"/>
    <path d="M 32.05 82.58 L 32.05 56.29 L 38.31 56.29 L 38.31 56.29 L 39.21 56.32 L 40.07 56.40 L 40.89 56.55 L 41.67 56.75 L 42.40 57.01 L 43.10 57.33 L 43.75 57.70 L 44.36 58.14 L 44.94 58.63 L 45.47 59.18 L 45.47 59.18 L 45.95 59.77 L 46.38 60.42 L 46.76 61.11 L 47.10 61.85 L 47.38 62.64 L 47.60 63.47 L 47.78 64.35 L 47.91 65.27 L 47.99 66.25 L 48.01 67.27 L 48.01 71.67 L 48.01 71.67 L 47.99 72.69 L 47.91 73.67 L 47.78 74.59 L 47.60 75.47 L 47.37 76.30 L 47.08 77.09 L 46.75 77.82 L 46.36 78.51 L 45.92 79.15 L 45.43 79.75 L 45.43 79.75 L 44.89 80.29 L 44.30 80.77 L 43.67 81.19 L 42.99 81.56 L 42.26 81.87 L 41.49 82.13 L 40.67 82.33 L 39.81 82.47 L 38.89 82.55 L 37.93 82.58 L 32.05 82.58 ZM 35.35 59.14 L 35.35 79.75 L 38.01 79.75 L 38.01 79.75 L 38.69 79.73 L 39.33 79.67 L 39.93 79.57 L 40.49 79.43 L 41.02 79.25 L 41.51 79.03 L 41.97 78.77 L 42.38 78.48 L 42.76 78.14 L 43.10 77.76 L 43.10 77.76 L 43.41 77.34 L 43.68 76.88 L 43.92 76.39 L 44.13 75.85 L 44.31 75.28 L 44.46 74.67 L 44.58 74.02 L 44.67 73.33 L 44.72 72.60 L 44.74 71.84 L 44.74 67.18 L 44.74 67.18 L 44.73 66.37 L 44.68 65.60 L 44.60 64.88 L 44.49 64.21 L 44.34 63.58 L 44.16 62.99 L 43.96 62.45 L 43.71 61.95 L 43.44 61.50 L 43.14 61.09 L 43.14 61.09 L 42.80 60.72 L 42.43 60.39 L 42.03 60.10 L 41.60 59.84 L 41.14 59.63 L 40.64 59.45 L 40.11 59.32 L 39.54 59.22 L 38.94 59.16 L 38.31 59.14 L 35.35 59.14 Z" style="fill-rule: nonzero; fill: rgb(255, 255, 255); stroke-width: 0.75;"/>
    <path d="M 65.42 75.72 L 56.54 75.72 L 54.50 82.58 L 51.10 82.58 L 59.57 56.29 L 62.41 56.29 L 70.90 82.58 L 67.50 82.58 L 65.42 75.72 ZM 57.40 72.87 L 64.57 72.87 L 60.98 60.91 L 57.40 72.87 Z" style="fill-rule: nonzero; fill: rgb(255, 255, 255); stroke-width: 0.75;"/>
    <path d="M 78.68 77.72 L 82.38 63.04 L 85.63 63.04 L 79.84 82.58 L 77.45 82.58 L 71.58 63.04 L 74.83 63.04 L 78.68 77.72 Z" style="fill-rule: nonzero; fill: rgb(208, 0, 121); stroke-width: 0.75; stroke: rgb(255, 255, 255);"/>
    <path d="M 92.41 82.58 L 89.21 82.58 L 89.21 63.04 L 92.41 63.04 L 92.41 82.58 ZM 92.66 57.86 L 92.66 57.86 L 92.66 58.02 L 92.64 58.17 L 92.62 58.32 L 92.59 58.46 L 92.55 58.60 L 92.50 58.74 L 92.44 58.86 L 92.37 58.99 L 92.29 59.10 L 92.21 59.21 L 92.21 59.21 L 92.11 59.32 L 92.01 59.41 L 91.90 59.49 L 91.77 59.56 L 91.64 59.62 L 91.50 59.67 L 91.35 59.71 L 91.19 59.73 L 91.02 59.75 L 90.84 59.75 L 90.84 59.75 L 90.66 59.75 L 90.49 59.73 L 90.33 59.71 L 90.19 59.67 L 90.05 59.62 L 89.91 59.56 L 89.79 59.49 L 89.68 59.41 L 89.58 59.32 L 89.48 59.21 L 89.48 59.21 L 89.40 59.10 L 89.32 58.99 L 89.25 58.86 L 89.19 58.74 L 89.14 58.60 L 89.10 58.46 L 89.07 58.32 L 89.05 58.17 L 89.03 58.02 L 89.03 57.86 L 89.03 57.86 L 89.03 57.70 L 89.05 57.54 L 89.07 57.39 L 89.10 57.25 L 89.14 57.11 L 89.19 56.97 L 89.25 56.84 L 89.32 56.72 L 89.40 56.60 L 89.48 56.49 L 89.48 56.49 L 89.58 56.38 L 89.68 56.28 L 89.79 56.20 L 89.91 56.13 L 90.05 56.07 L 90.19 56.02 L 90.33 55.98 L 90.49 55.95 L 90.66 55.93 L 90.84 55.93 L 90.84 55.93 L 91.01 55.93 L 91.18 55.95 L 91.34 55.98 L 91.49 56.02 L 91.63 56.07 L 91.76 56.13 L 91.88 56.21 L 91.99 56.30 L 92.10 56.39 L 92.19 56.50 L 92.19 56.50 L 92.28 56.62 L 92.36 56.74 L 92.43 56.86 L 92.49 56.99 L 92.54 57.12 L 92.59 57.26 L 92.62 57.40 L 92.64 57.55 L 92.66 57.70 L 92.66 57.86 Z" style="fill-rule: nonzero; fill: rgb(208, 0, 121); stroke-width: 0.75; stroke: rgb(255, 255, 255);"/>
    <path d="M 106.93 77.58 L 106.93 77.58 L 106.92 77.38 L 106.90 77.18 L 106.86 76.99 L 106.80 76.80 L 106.73 76.62 L 106.65 76.45 L 106.55 76.28 L 106.43 76.12 L 106.30 75.96 L 106.15 75.81 L 106.15 75.81 L 105.98 75.66 L 105.78 75.50 L 105.56 75.34 L 105.30 75.18 L 105.01 75.01 L 104.70 74.83 L 104.36 74.65 L 103.98 74.46 L 103.58 74.27 L 103.15 74.08 L 103.15 74.08 L 102.65 73.87 L 102.18 73.66 L 101.74 73.46 L 101.33 73.27 L 100.95 73.09 L 100.60 72.91 L 100.28 72.74 L 99.99 72.57 L 99.73 72.41 L 99.51 72.25 L 99.51 72.25 L 99.30 72.10 L 99.11 71.94 L 98.92 71.78 L 98.75 71.61 L 98.59 71.44 L 98.44 71.27 L 98.30 71.09 L 98.16 70.91 L 98.04 70.73 L 97.93 70.54 L 97.93 70.54 L 97.83 70.34 L 97.75 70.13 L 97.67 69.92 L 97.60 69.70 L 97.54 69.47 L 97.49 69.24 L 97.46 68.99 L 97.43 68.75 L 97.42 68.49 L 97.41 68.22 L 97.41 68.22 L 97.43 67.76 L 97.48 67.30 L 97.57 66.87 L 97.69 66.45 L 97.84 66.04 L 98.03 65.66 L 98.26 65.29 L 98.52 64.93 L 98.81 64.59 L 99.14 64.27 L 99.14 64.27 L 99.50 63.97 L 99.88 63.70 L 100.28 63.46 L 100.70 63.25 L 101.14 63.08 L 101.59 62.93 L 102.07 62.82 L 102.56 62.74 L 103.07 62.70 L 103.61 62.68 L 103.61 62.68 L 104.16 62.70 L 104.70 62.75 L 105.22 62.83 L 105.71 62.95 L 106.18 63.10 L 106.63 63.28 L 107.05 63.49 L 107.45 63.74 L 107.83 64.03 L 108.19 64.34 L 108.19 64.34 L 108.52 64.68 L 108.82 65.04 L 109.08 65.42 L 109.30 65.82 L 109.49 66.24 L 109.65 66.67 L 109.77 67.13 L 109.86 67.60 L 109.91 68.09 L 109.93 68.60 L 106.75 68.60 L 106.75 68.60 L 106.74 68.34 L 106.71 68.09 L 106.67 67.85 L 106.61 67.61 L 106.53 67.39 L 106.43 67.17 L 106.31 66.95 L 106.18 66.75 L 106.03 66.55 L 105.86 66.36 L 105.86 66.36 L 105.68 66.19 L 105.49 66.03 L 105.29 65.89 L 105.08 65.76 L 104.86 65.66 L 104.63 65.58 L 104.38 65.51 L 104.13 65.46 L 103.87 65.43 L 103.61 65.43 L 103.61 65.43 L 103.33 65.43 L 103.07 65.46 L 102.81 65.49 L 102.57 65.54 L 102.35 65.61 L 102.13 65.69 L 101.92 65.79 L 101.73 65.90 L 101.55 66.03 L 101.38 66.17 L 101.38 66.17 L 101.23 66.32 L 101.10 66.48 L 100.98 66.65 L 100.87 66.82 L 100.79 67.01 L 100.72 67.22 L 100.66 67.43 L 100.62 67.65 L 100.60 67.88 L 100.59 68.12 L 100.59 68.12 L 100.59 68.31 L 100.61 68.49 L 100.64 68.67 L 100.68 68.84 L 100.73 69.00 L 100.80 69.15 L 100.87 69.30 L 100.96 69.43 L 101.06 69.56 L 101.17 69.69 L 101.17 69.69 L 101.30 69.81 L 101.47 69.94 L 101.67 70.08 L 101.91 70.23 L 102.17 70.38 L 102.47 70.54 L 102.81 70.71 L 103.17 70.88 L 103.57 71.07 L 104.00 71.26 L 104.00 71.26 L 104.69 71.54 L 105.33 71.81 L 105.93 72.09 L 106.48 72.36 L 106.99 72.64 L 107.45 72.91 L 107.87 73.18 L 108.24 73.45 L 108.56 73.72 L 108.84 73.99 L 108.84 73.99 L 109.09 74.26 L 109.30 74.54 L 109.50 74.84 L 109.66 75.16 L 109.80 75.49 L 109.92 75.83 L 110.01 76.19 L 110.07 76.56 L 110.11 76.94 L 110.12 77.35 L 110.12 77.35 L 110.11 77.84 L 110.05 78.32 L 109.97 78.78 L 109.84 79.22 L 109.69 79.64 L 109.49 80.04 L 109.27 80.42 L 109.00 80.77 L 108.71 81.11 L 108.37 81.43 L 108.37 81.43 L 108.01 81.72 L 107.62 81.97 L 107.21 82.20 L 106.78 82.40 L 106.32 82.57 L 105.84 82.70 L 105.34 82.81 L 104.81 82.88 L 104.25 82.93 L 103.68 82.94 L 103.68 82.94 L 103.08 82.93 L 102.50 82.87 L 101.95 82.79 L 101.42 82.66 L 100.91 82.51 L 100.43 82.31 L 99.97 82.09 L 99.53 81.82 L 99.12 81.53 L 98.73 81.19 L 98.73 81.19 L 98.37 80.83 L 98.05 80.45 L 97.76 80.06 L 97.51 79.64 L 97.31 79.21 L 97.14 78.75 L 97.00 78.28 L 96.91 77.79 L 96.85 77.28 L 96.83 76.75 L 100.05 76.75 L 100.05 76.75 L 100.07 77.07 L 100.10 77.37 L 100.16 77.66 L 100.23 77.94 L 100.32 78.20 L 100.43 78.45 L 100.56 78.68 L 100.70 78.90 L 100.86 79.10 L 101.04 79.30 L 101.04 79.30 L 101.24 79.47 L 101.45 79.63 L 101.67 79.77 L 101.91 79.89 L 102.17 79.99 L 102.44 80.07 L 102.73 80.13 L 103.03 80.18 L 103.35 80.21 L 103.68 80.22 L 103.68 80.22 L 103.99 80.21 L 104.28 80.19 L 104.56 80.15 L 104.83 80.10 L 105.08 80.04 L 105.31 79.96 L 105.53 79.87 L 105.73 79.77 L 105.92 79.65 L 106.10 79.51 L 106.10 79.51 L 106.26 79.36 L 106.40 79.20 L 106.52 79.04 L 106.63 78.86 L 106.72 78.67 L 106.80 78.47 L 106.85 78.26 L 106.89 78.05 L 106.92 77.82 L 106.93 77.58 Z" style="fill-rule: nonzero; fill: rgb(208, 0, 121); stroke-width: 0.75; stroke: rgb(255, 255, 255);"/>
    <circle cx="43.307" cy="124.917" r="0.78" style="stroke-width: 0.71; fill: #440154;"/>
    <circle cx="35.189" cy="119.096" r="0.78" style="stroke-width: 0.71; fill: #440154;"/>
  </g>
  <g clip-path="url(#cpMC4wMHwxMjQuNDR8MC4xNHwxNDQuMDA=)"/>
  <g clip-path="url(#cpMC4wMHwxMjQuNDR8MC4wMHwxNDQuMDA=)"/>
  <g clip-path="url(#cpMC4wMHwxMjQuNDR8MC4xNHwxNDQuMDA=)"/>
  <g clip-path="url(#cpMC4wMHwxMjQuNDR8MC4wMHwxNDQuMDA=)"/>
  <g clip-path="url(#cpMC4wMHwxMjQuNDR8MC4xNHwxNDQuMDA=)"/>
  <g clip-path="url(#cpMC4wMHwxMjQuNDR8MC4wMHwxNDQuMDA=)"/>
  <g clip-path="url(#cpMC4wMHwxMjQuNDR8MC4xNHwxNDQuMDA=)"/>
  <g clip-path="url(#cpMC4wMHwxMjQuNDR8MC4wMHwxNDQuMDA=)"/>
  <g clip-path="url(#cpMC4wMHwxMjQuNDR8MC4xNHwxNDQuMDA=)"/>
  <g clip-path="url(#cpMC4wMHwxMjQuNDR8MC4wMHwxNDQuMDA=)"/>
  <g clip-path="url(#cpMC4wMHwxMjQuNDR8MC4xNHwxNDQuMDA=)"/>
  <g clip-path="url(#cpMC4wMHwxMjQuNDR8MC4wMHwxNDQuMDA=)"/>
  <g clip-path="url(#cpMC4wMHwxMjQuNDR8MC4xNHwxNDQuMDA=)"/>
  <g clip-path="url(#cpMC4wMHwxMjQuNDR8MC4wMHwxNDQuMDA=)"/>
  <g clip-path="url(#cpMC4wMHwxMjQuNDR8MC4xNHwxNDQuMDA=)"/>
  <g clip-path="url(#cpMC4wMHwxMjQuNDR8MC4wMHwxNDQuMDA=)"/>
  <g clip-path="url(#cpMC4wMHwxMjQuNDR8MC4xNHwxNDQuMDA=)"/>
  <g clip-path="url(#cpMC4wMHwxMjQuNDR8MC4wMHwxNDQuMDA=)"/>
  <g clip-path="url(#cpMC4wMHwxMjQuNDR8MC4xNHwxNDQuMDA=)"/>
  <g clip-path="url(#cpMC4wMHwxMjQuNDR8MC4wMHwxNDQuMDA=)"/>
  <g clip-path="url(#cpMC4wMHwxMjQuNDR8MC4xNHwxNDQuMDA=)"/>
  <g clip-path="url(#cpMC4wMHwxMjQuNDR8MC4wMHwxNDQuMDA=)"/>
  <g clip-path="url(#cpMC4wMHwxMjQuNDR8MC4xNHwxNDQuMDA=)"/>
  <g clip-path="url(#cpMC4wMHwxMjQuNDR8MC4wMHwxNDQuMDA=)"/>
  <g clip-path="url(#cpMC4wMHwxMjQuNDR8MC4xNHwxNDQuMDA=)"/>
  <g clip-path="url(#cpMC4wMHwxMjQuNDR8MC4wMHwxNDQuMDA=)"/>
  <g clip-path="url(#cpMC4wMHwxMjQuNDR8MC4xNHwxNDQuMDA=)"/>
  <g clip-path="url(#cpMC4wMHwxMjQuNDR8MC4wMHwxNDQuMDA=)"/>
  <g clip-path="url(#cpMC4wMHwxMjQuNDR8MC4xNHwxNDQuMDA=)"/>
  <g clip-path="url(#cpMC4wMHwxMjQuNDR8MC4wMHwxNDQuMDA=)"/>
  <g clip-path="url(#cpMC4wMHwxMjQuNDR8MC4xNHwxNDQuMDA=)"/>
  <g clip-path="url(#cpMC4wMHwxMjQuNDR8MC4wMHwxNDQuMDA=)"/>
  <g clip-path="url(#cpMC4wMHwxMjQuNDR8MC4xNHwxNDQuMDA=)">
    <polygon points="1.08,36.81 1.08,107.33 62.15,142.59 123.22,107.33 123.22,36.81 62.15,1.55 1.08,36.81 " style="stroke-width: 4.27; stroke: #FFFFFF;"/>
    <polygon points="1.08,36.81 1.08,107.33 62.15,142.59 123.22,107.33 123.22,36.81 62.15,1.55 1.08,36.81 " style="stroke-width: 2.13;"/>
  </g>
  <g clip-path="url(#cpMC4wMHwxMjQuNDR8MC4wMHwxNDQuMDA=)"/>
</svg>